<svg width="50" height="50" viewBox="0 0 50 50" fill="none" xmlns="http://www.w3.org/2000/svg">
<path d="M33.8896 32.1191H7.91309C5.02761 32.1191 2.68848 34.4583 2.68848 37.3438C2.68848 40.2292 5.02761 42.5684 7.91309 42.5684H33.8896C36.7751 42.5684 39.1143 40.2292 39.1143 37.3438C39.1143 34.4583 36.7751 32.1191 33.8896 32.1191Z" fill="#EA4335"/>
<path d="M7.94531 39.9707C9.38535 39.9707 10.5527 38.8033 10.5527 37.3633C10.5527 35.9232 9.38535 34.7559 7.94531 34.7559C6.50527 34.7559 5.33789 35.9232 5.33789 37.3633C5.33789 38.8033 6.50527 39.9707 7.94531 39.9707Z" fill="white"/>
<path d="M9.84219 26.3243L30.8577 41.5929C33.1921 43.289 36.4594 42.7715 38.1554 40.4371C39.8515 38.1027 39.334 34.8354 36.9996 33.1393L15.9841 17.8707C13.6497 16.1747 10.3824 16.6921 8.68634 19.0265C6.9903 21.3609 7.5078 24.6283 9.84219 26.3243Z" fill="#FBBC04"/>
<path d="M12.8359 24.623C14.276 24.623 15.4434 23.4557 15.4434 22.0156C15.4434 20.5756 14.276 19.4082 12.8359 19.4082C11.3959 19.4082 10.2285 20.5756 10.2285 22.0156C10.2285 23.4557 11.3959 24.623 12.8359 24.623Z" fill="white"/>
<path d="M38.9657 35.6791L30.9385 10.9739C30.0468 8.22963 27.0993 6.72781 24.3551 7.61947C21.6108 8.51113 20.109 11.4586 21.0007 14.2029L29.0279 38.908C29.9195 41.6523 32.867 43.1541 35.6113 42.2624C38.3555 41.3708 39.8573 38.4233 38.9657 35.6791Z" fill="#34A853"/>
<path d="M25.9609 15.2324C27.401 15.2324 28.5684 14.065 28.5684 12.625C28.5684 11.185 27.401 10.0176 25.9609 10.0176C24.5209 10.0176 23.3535 11.185 23.3535 12.625C23.3535 14.065 24.5209 15.2324 25.9609 15.2324Z" fill="white"/>
<path d="M37.0366 10.9737L29.0094 35.6789C28.1177 38.4231 29.6195 41.3706 32.3638 42.2623C35.108 43.1539 38.0555 41.6521 38.9472 38.9079L46.9744 14.2027C47.866 11.4584 46.3642 8.51094 43.62 7.61928C40.8757 6.72762 37.9283 8.22944 37.0366 10.9737Z" fill="#4285F4"/>
<path d="M34.0059 39.877C35.4459 39.877 36.6133 38.7096 36.6133 37.2695C36.6133 35.8295 35.4459 34.6621 34.0059 34.6621C32.5658 34.6621 31.3984 35.8295 31.3984 37.2695C31.3984 38.7096 32.5658 39.877 34.0059 39.877Z" fill="white"/>
<path d="M42.0576 15.0967C43.4977 15.0967 44.665 13.9293 44.665 12.4893C44.665 11.0492 43.4977 9.88184 42.0576 9.88184C40.6176 9.88184 39.4502 11.0492 39.4502 12.4893C39.4502 13.9293 40.6176 15.0967 42.0576 15.0967Z" fill="white"/>
</svg>
