<svg width="50" height="50" viewBox="0 0 50 50" fill="none" xmlns="http://www.w3.org/2000/svg">
<path d="M24 5.55554H26.7722V6.94443H24V5.55554Z" fill="#66757F"/>
<path d="M3 16.6667V44.4444C3 45.9179 3.58532 47.3309 4.62718 48.3728C5.66905 49.4147 7.08213 50 8.55556 50H41.8889C43.3623 50 44.7754 49.4147 45.8173 48.3728C46.8591 47.3309 47.4444 45.9179 47.4444 44.4444V16.6667H3Z" fill="#CCD6DD"/>
<path d="M41.8889 5.55554H8.55556C7.08213 5.55554 5.66905 6.14086 4.62718 7.18273C3.58532 8.22459 3 9.63767 3 11.1111V18.0555H47.4444V11.1111C47.4444 9.63767 46.8591 8.22459 45.8173 7.18273C44.7754 6.14086 43.3623 5.55554 41.8889 5.55554Z" fill="#DD2E44"/>
<path d="M12.7653 12.1264C11.7903 12.1264 11 11.2014 11 10.0583C11 8.91665 11.7903 7.99026 12.7653 7.99026C13.7389 7.99026 14.5292 8.91665 14.5292 10.0583C14.5292 11.2 13.7389 12.1264 12.7653 12.1264ZM21.0986 12.1264C20.1236 12.1264 19.3333 11.2014 19.3333 10.0583C19.3333 8.91665 20.1236 7.99026 21.0986 7.99026C22.0722 7.99026 22.8625 8.91665 22.8625 10.0583C22.8625 11.2 22.0722 12.1264 21.0986 12.1264ZM29.432 12.1264C28.457 12.1264 27.6667 11.2014 27.6667 10.0583C27.6667 8.91665 28.457 7.99026 29.432 7.99026C30.4056 7.99026 31.1972 8.91665 31.1972 10.0583C31.1958 11.2 30.4056 12.1264 29.432 12.1264ZM37.7653 12.1264C36.7903 12.1264 36 11.2014 36 10.0583C36 8.91665 36.7903 7.99026 37.7653 7.99026C38.7389 7.99026 39.5306 8.91665 39.5306 10.0583C39.5292 11.2 38.7389 12.1264 37.7653 12.1264Z" fill="#292F33"/>
<path d="M37.8611 0.248596C36.0875 0.248596 34.5514 1.36249 33.7028 2.98471C32.8611 1.39721 31.3181 0.248596 29.5278 0.248596C27.7542 0.248596 26.2181 1.36249 25.3694 2.98471C24.5278 1.39721 22.9847 0.248596 21.1944 0.248596C19.4208 0.248596 17.8847 1.36249 17.0361 2.98471C16.1944 1.39721 14.6514 0.248596 12.8611 0.248596C10.175 0.248596 8 2.77499 8 5.8111C8 8.3861 9.45139 10.493 11.5681 11.2639C12.6222 11.6458 13.2681 10.643 13.1778 9.83887C13.1014 9.17221 12.6583 8.73749 12.1653 8.42499C11.4917 7.9986 10.7764 7.02499 10.7764 5.81804C10.7764 4.28471 11.7083 2.90832 12.8597 2.90832C14.0111 2.90832 14.9431 4.16526 14.9431 5.55415H16.3542C16.35 5.64026 16.3319 5.72221 16.3319 5.80971C16.3319 8.38471 17.7833 10.4917 19.9 11.2625C20.9542 11.6444 21.6 10.6417 21.5097 9.83749C21.4333 9.17221 20.9903 8.73749 20.4972 8.42499C19.8236 7.9986 19.1083 7.02499 19.1083 5.81804C19.1083 4.28471 20.0403 2.90832 21.1917 2.90832C22.3431 2.90832 23.2778 4.16665 23.2778 5.55554H24.6889C24.6847 5.64165 24.6667 5.7236 24.6667 5.8111C24.6667 8.3861 26.1181 10.493 28.2347 11.2639C29.2889 11.6458 29.9347 10.643 29.8444 9.83887C29.7681 9.1736 29.325 8.73887 28.8319 8.42637C28.1583 7.99999 27.4431 7.02637 27.4431 5.81943C27.4431 4.2861 28.375 2.90971 29.5264 2.90971C30.6778 2.90971 31.6111 4.16665 31.6111 5.55554H33.0222C33.0181 5.64165 33 5.7236 33 5.8111C33 8.3861 34.4514 10.493 36.5681 11.2639C37.6222 11.6458 38.2681 10.643 38.1778 9.83887C38.1014 9.1736 37.6583 8.73887 37.1653 8.42637C36.4917 7.99999 35.7764 7.02637 35.7764 5.81943C35.7764 4.2861 36.7083 2.90971 37.8597 2.90971C39.0111 2.90971 39.9444 4.16665 39.9444 5.55554H42.7167C42.6875 2.77776 40.5278 0.248596 37.8611 0.248596Z" fill="#66757F"/>
<path d="M14.9444 20.8333H20.5V26.3889H14.9444V20.8333ZM21.8889 20.8333H27.4444V26.3889H21.8889V20.8333ZM28.8333 20.8333H34.3889V26.3889H28.8333V20.8333ZM35.7778 20.8333H41.3333V26.3889H35.7778V20.8333ZM8 27.7778H13.5556V33.3333H8V27.7778ZM14.9444 27.7778H20.5V33.3333H14.9444V27.7778ZM21.8889 27.7778H27.4444V33.3333H21.8889V27.7778ZM28.8333 27.7778H34.3889V33.3333H28.8333V27.7778ZM35.7778 27.7778H41.3333V33.3333H35.7778V27.7778ZM8 34.7222H13.5556V40.2778H8V34.7222ZM14.9444 34.7222H20.5V40.2778H14.9444V34.7222ZM21.8889 34.7222H27.4444V40.2778H21.8889V34.7222ZM28.8333 34.7222H34.3889V40.2778H28.8333V34.7222ZM35.7778 34.7222H41.3333V40.2778H35.7778V34.7222ZM8 41.6667H13.5556V47.2222H8V41.6667ZM14.9444 41.6667H20.5V47.2222H14.9444V41.6667ZM21.8889 41.6667H27.4444V47.2222H21.8889V41.6667Z" fill="white"/>
</svg>
