<svg width="50" height="50" viewBox="0 0 50 50" fill="none" xmlns="http://www.w3.org/2000/svg">
<path fill-rule="evenodd" clip-rule="evenodd" d="M38.539 22.6158C38.3786 13.5499 30.9793 6.25 21.875 6.25C12.6702 6.25 5.20837 13.7119 5.20837 22.9167C5.20837 27.2605 6.87015 31.2162 9.59267 34.1827L8.34424 41.6934L15.7552 38.5103C19.0206 39.596 22.1021 39.8675 25 39.3246" fill="#2F88FF"/>
<path d="M38.539 22.6158C38.3786 13.5499 30.9793 6.25 21.875 6.25C12.6702 6.25 5.20837 13.7119 5.20837 22.9167C5.20837 27.2605 6.87015 31.2162 9.59267 34.1827L8.34424 41.6934L15.7552 38.5103C19.0206 39.596 22.1021 39.8675 25 39.3246" stroke="black" stroke-width="4" stroke-linecap="round" stroke-linejoin="round"/>
<path d="M15.7552 21.3195C17.0496 21.3195 18.099 20.2624 18.099 18.9583C18.099 17.6544 17.0496 16.5972 15.7552 16.5972C14.4609 16.5972 13.4115 17.6544 13.4115 18.9583C13.4115 20.2624 14.4609 21.3195 15.7552 21.3195Z" fill="white"/>
<path d="M25.1302 21.3195C26.4246 21.3195 27.474 20.2624 27.474 18.9583C27.474 17.6544 26.4246 16.5972 25.1302 16.5972C23.8359 16.5972 22.7865 17.6544 22.7865 18.9583C22.7865 20.2624 23.8359 21.3195 25.1302 21.3195Z" fill="white"/>
<path fill-rule="evenodd" clip-rule="evenodd" d="M40.377 41.593C38.5558 42.9481 36.2987 43.75 33.8542 43.75C27.8136 43.75 22.9167 38.8531 22.9167 32.8125C22.9167 26.7719 27.8136 21.875 33.8542 21.875C39.8949 21.875 44.7917 26.7719 44.7917 32.8125C44.7917 34.4789 44.4191 36.0582 43.7526 37.4717" fill="#2F88FF"/>
<path d="M40.377 41.593C38.5558 42.9481 36.2987 43.75 33.8542 43.75C27.8136 43.75 22.9167 38.8531 22.9167 32.8125C22.9167 26.7719 27.8136 21.875 33.8542 21.875C39.8949 21.875 44.7917 26.7719 44.7917 32.8125C44.7917 34.4789 44.4191 36.0582 43.7526 37.4717" stroke="black" stroke-width="4" stroke-linecap="round" stroke-linejoin="round"/>
<path fill-rule="evenodd" clip-rule="evenodd" d="M43.7526 37.4717L44.7917 43.75L40.377 41.593" fill="#2F88FF"/>
<path d="M43.7526 37.4717L44.7917 43.75L40.377 41.593" stroke="black" stroke-width="4" stroke-linecap="round" stroke-linejoin="round"/>
<path d="M37.1746 32.0832C36.2037 32.0832 35.4167 31.2904 35.4167 30.3124C35.4167 29.3344 36.2037 28.5416 37.1746 28.5416C38.1454 28.5416 38.9324 29.3344 38.9324 30.3124C38.9324 31.2904 38.1454 32.0832 37.1746 32.0832Z" fill="white"/>
<path d="M30.1433 32.0832C29.1725 32.0832 28.3855 31.2904 28.3855 30.3124C28.3855 29.3344 29.1725 28.5416 30.1433 28.5416C31.1141 28.5416 31.9011 29.3344 31.9011 30.3124C31.9011 31.2904 31.1141 32.0832 30.1433 32.0832Z" fill="white"/>
</svg>
