<svg width="50" height="50" viewBox="0 0 50 50" fill="none" xmlns="http://www.w3.org/2000/svg">
<g clip-path="url(#clip0_14_246)">
<path d="M0.46875 38.0469L14.9219 22.9688L3.82813 6.95312C3.28125 7.65625 2.89062 8.59375 2.8125 9.6875L-1.86265e-09 35.2344C-0.078125 36.3281 0.078125 37.2656 0.46875 38.0469ZM48.9844 4.29688L28.0469 23.75L44.5312 46.0156C45.4688 45.2344 46.0938 44.0625 46.25 42.6562L50 7.8125C50.1562 6.40625 49.6875 5.07812 48.9844 4.29688Z" fill="#B0BDC6"/>
<path d="M20.0781 30.7813L14.9219 22.9688L0.46875 38.0469C0.78125 38.75 1.32812 39.2188 1.95312 39.375L41.6406 46.875C42.7344 47.1094 43.75 46.7188 44.5312 46.0156L28.0469 23.75L20.0781 30.7813Z" fill="#CAD5DD"/>
<path d="M46.3281 3.125L5.54687 5.85938C4.92187 5.9375 4.29688 6.32813 3.82812 6.95313L15 22.9688L20.1562 30.7813L28.125 23.75L48.9844 4.29688C48.2812 3.51563 47.3438 3.04688 46.3281 3.125Z" fill="#DFE9EF"/>
<path d="M27.5 18.4375L27.9688 14.4531L14.2969 14.375L12.0312 33.0469L25.3125 36.1719L25.8594 32.1875L15.8594 30.2344L16.4063 25.9375L26.4062 27.3438L26.875 23.3594L16.7969 22.3438L17.3438 17.9688L27.5 18.4375Z" fill="#428BC1"/>
</g>
<defs>
<clipPath id="clip0_14_246">
<rect width="50" height="50" fill="white"/>
</clipPath>
</defs>
</svg>
