<svg width="50" height="50" viewBox="0 0 50 50" fill="none" xmlns="http://www.w3.org/2000/svg">
<path d="M49.9344 32.9453C48.8649 29.8672 47.7922 26.7852 46.7227 23.7008L45.7493 20.9117C44.7341 20.911 43.7416 20.6113 42.8958 20.05C42.0499 19.4887 41.3881 18.6906 40.993 17.7555C34.8204 19.9016 28.6508 22.0492 22.4782 24.1922C18.8165 25.4641 15.1516 26.7399 11.486 28.0157C11.7446 28.9538 11.7331 29.946 11.4528 30.8779C11.1725 31.8099 10.6348 32.6437 9.90161 33.2836C10.8219 35.9352 11.7415 38.586 12.6649 41.2375C13.1563 42.6532 13.6469 44.0633 14.1368 45.4797C14.8586 45.5133 15.5654 45.6981 16.2113 46.022C16.8573 46.3459 17.4281 46.8018 17.8868 47.3602C24.2282 45.1555 30.5657 42.9532 36.9063 40.7477C40.5899 39.4657 44.2829 38.1844 47.9758 36.9024C47.9896 36.1388 48.1724 35.3878 48.511 34.7033C48.8497 34.0189 49.3358 33.4179 49.9344 32.9438" fill="#BF8149"/>
<path d="M49.1172 32.5555C48.0445 29.4742 46.9703 26.3914 45.9 23.3039L44.9289 20.5164C43.9145 20.5159 42.9227 20.2162 42.0778 19.6548C41.2329 19.0933 40.5724 18.2952 40.1789 17.3602C34.0062 19.5063 27.8336 21.6524 21.6609 23.7969C17.9974 25.0722 14.3334 26.3459 10.6687 27.618C10.9279 28.5573 10.916 29.5508 10.6342 30.4836C10.3524 31.4164 9.8124 32.2503 9.07654 32.8891C9.99998 35.5406 10.925 38.1945 11.8445 40.8461C12.3351 42.2563 12.8265 43.6688 13.3179 45.0852C14.0394 45.1194 14.7458 45.3044 15.3914 45.6283C16.037 45.9522 16.6076 46.4077 17.0664 46.9656C23.407 44.7641 29.7484 42.5578 36.0828 40.3563C39.7758 39.0711 43.4656 37.7899 47.1554 36.5039C47.1702 35.7413 47.3538 34.9915 47.693 34.3084C48.0322 33.6253 48.5186 33.0258 49.1172 32.5531" fill="#F2A755"/>
<path d="M10.4422 30.9891C10.1411 31.7212 9.67319 32.3728 9.07581 32.8922L13.318 45.0875C14.0395 45.1217 14.7458 45.3068 15.3914 45.6306C16.037 45.9545 16.6076 46.4101 17.0664 46.968L47.1555 36.5063C47.1638 36.0571 47.2343 35.6112 47.3649 35.1813C42.686 36.7125 22.5274 43.1969 10.443 30.9891" fill="#D89450"/>
<path d="M43.5844 34.8414L19.0469 43.3719C18.6851 43.4969 18.3477 43.3937 18.2578 43.1281L13.8406 30.418C13.82 30.3563 13.8139 30.2908 13.8229 30.2264C13.8318 30.162 13.8555 30.1006 13.8922 30.0469L13.9094 29.9563L14.0031 29.9187C14.0734 29.8469 14.1812 29.7844 14.3101 29.7406L38.8406 21.2109C39.2023 21.0859 39.5453 21.1891 39.6328 21.45L44.0523 34.1609C44.1461 34.4234 43.943 34.7172 43.5844 34.8414ZM18.7523 42.8727C18.7911 42.8685 18.8293 42.8604 18.8664 42.8484L43.4039 34.3172C43.4403 34.3055 43.475 34.2889 43.507 34.268L39.143 21.7133C39.1037 21.7151 39.0649 21.723 39.0281 21.7367L14.4937 30.268C14.4619 30.2762 14.4314 30.2888 14.4031 30.3055L14.3922 30.3336L18.7523 42.8727Z" fill="#BE1E2D"/>
<path d="M22.6164 32.8281L22.275 32.4203L20.7469 32.9508L20.7344 33.4961C20.7312 33.7055 20.7156 33.8516 20.6875 33.9359C20.6625 34.0172 20.5906 34.0797 20.4789 34.1164C20.4326 34.1338 20.3832 34.1415 20.3338 34.1392C20.2844 34.137 20.2359 34.1247 20.1914 34.1031C20.1022 34.0637 20.0319 33.9912 19.9953 33.9008C19.9802 33.8468 19.9718 33.7912 19.9703 33.7352C19.9653 33.65 19.9663 33.5647 19.9734 33.4797L20.0859 30.7102C20.0922 30.6313 20.0953 30.5352 20.0953 30.4227C20.1022 30.3273 20.1158 30.2325 20.1359 30.1391C20.1565 30.0576 20.1974 29.9826 20.2547 29.9211C20.3198 29.8508 20.4026 29.7992 20.4945 29.7719C20.5775 29.7378 20.6679 29.7256 20.757 29.7365C20.8461 29.7475 20.9308 29.7812 21.0031 29.8344C21.0719 29.8781 21.1312 29.9375 21.1875 29.9992C21.2437 30.0617 21.3086 30.1438 21.3992 30.2492L23.2203 32.3258C23.3578 32.4852 23.4422 32.6031 23.4765 32.6914C23.4909 32.737 23.4958 32.785 23.491 32.8326C23.4861 32.8801 23.4717 32.9262 23.4484 32.968C23.4265 33.0135 23.3956 33.0541 23.3576 33.0874C23.3197 33.1207 23.2753 33.146 23.2273 33.1617C23.1736 33.1825 23.116 33.191 23.0586 33.1867C23.011 33.1797 22.9655 33.1626 22.925 33.1367C22.8671 33.0991 22.8155 33.0527 22.7719 32.9992C22.717 32.945 22.6651 32.8879 22.6164 32.8281ZM20.7484 32.3109L21.8695 31.9242L20.7625 30.5711L20.7484 32.3109ZM23.2953 28.8711L24.2804 28.5289C24.5422 28.4383 24.7765 28.3852 24.9734 28.3695C25.1726 28.3539 25.3695 28.3859 25.5695 28.4664C26.0742 28.6633 26.4453 29.1023 26.6859 29.7828C26.764 30.0078 26.814 30.2227 26.8351 30.4219C26.8639 30.6091 26.8628 30.7998 26.832 30.9867C26.7813 31.3059 26.6306 31.6008 26.4015 31.8289C26.3015 31.9227 26.1867 32.0094 26.0594 32.075C25.9142 32.1517 25.7635 32.2175 25.6086 32.2719L24.6179 32.6172C24.4758 32.6617 24.3687 32.6797 24.2804 32.6617C24.2004 32.6454 24.1299 32.5983 24.0844 32.5305C24.0241 32.4453 23.9789 32.3504 23.9508 32.25L22.9929 29.4992C22.9367 29.3344 22.9304 29.2031 22.9804 29.1063C23.0242 29.0055 23.1297 28.9305 23.2953 28.8711ZM23.8 29.3711L24.6859 31.9156L25.2601 31.7164C25.3883 31.6727 25.4781 31.632 25.5531 31.6016C25.6187 31.5703 25.6937 31.5297 25.7594 31.4703C25.8233 31.4206 25.8773 31.3594 25.9187 31.2898C26.0969 30.9867 26.0969 30.5688 25.9148 30.0453C25.7844 29.6734 25.6312 29.418 25.4562 29.275C25.282 29.1281 25.1008 29.0602 24.9203 29.0633C24.7091 29.0794 24.5011 29.1246 24.3023 29.1977L23.8 29.3711ZM29.0703 30.4313L27.6414 28.2508L28.5429 30.8391C28.5898 30.9797 28.5984 31.1016 28.5586 31.1945C28.539 31.2405 28.5096 31.2817 28.4725 31.3151C28.4354 31.3486 28.3915 31.3735 28.3437 31.3883C28.2969 31.4059 28.247 31.4135 28.1971 31.4107C28.1472 31.4079 28.0984 31.3947 28.0539 31.3719C27.9633 31.3227 27.8945 31.2227 27.8476 31.082L26.8156 28.1156C26.7531 27.95 26.7625 27.8258 26.8281 27.7383C26.9094 27.6411 27.0171 27.5697 27.1383 27.5328L27.3773 27.4516C27.4798 27.4111 27.5883 27.3879 27.6984 27.3828C27.7338 27.3844 27.7685 27.3929 27.8005 27.4079C27.8325 27.423 27.8613 27.4442 27.8851 27.4703C27.9445 27.5297 28.0164 27.6227 28.1031 27.7602L29.3664 29.6258L29.1945 27.3828C29.1789 27.2211 29.1765 27.0992 29.1851 27.0211C29.1937 26.943 29.2258 26.8805 29.2789 26.8344C29.3344 26.7875 29.4344 26.7375 29.575 26.6875L29.8125 26.6063C29.9562 26.557 30.0804 26.5445 30.1836 26.5727C30.2867 26.6 30.3703 26.6969 30.4273 26.8594L31.4594 29.825C31.5094 29.9656 31.5125 30.0875 31.4758 30.1813C31.4552 30.2272 31.4251 30.2682 31.3873 30.3015C31.3496 30.3348 31.3052 30.3596 31.257 30.3742C31.2115 30.3931 31.1622 30.4012 31.113 30.3979C31.0638 30.3947 31.0161 30.3802 30.9734 30.3555C30.8804 30.3063 30.8148 30.2086 30.7617 30.0688L29.864 27.4805L30.0953 30.0789C30.1078 30.2469 30.1133 30.3719 30.1133 30.4531C30.1133 30.5344 30.0922 30.6125 30.0476 30.6969C30.0206 30.7424 29.9848 30.7821 29.9423 30.8136C29.8998 30.8451 29.8514 30.8679 29.8 30.8805C29.7235 30.9127 29.6392 30.9215 29.5578 30.9055C29.4848 30.89 29.4171 30.8555 29.3617 30.8055C29.3072 30.7543 29.258 30.6977 29.2148 30.6367C29.1664 30.568 29.1195 30.5031 29.0703 30.4313ZM32.2578 29.5078L31.232 26.5578C31.182 26.4023 31.1726 26.2773 31.2156 26.1773C31.2365 26.1269 31.2684 26.0817 31.3089 26.0451C31.3495 26.0084 31.3976 25.9813 31.45 25.9656C31.5007 25.946 31.5551 25.9375 31.6094 25.9408C31.6638 25.944 31.7168 25.9589 31.7648 25.9844C31.8601 26.0367 31.9367 26.1367 31.9922 26.2938L33.0179 29.2469C33.0711 29.3992 33.0773 29.5273 33.0312 29.6305C33.0097 29.6811 32.9772 29.7263 32.9362 29.7629C32.8951 29.7995 32.8465 29.8266 32.7937 29.8422C32.744 29.8605 32.691 29.868 32.6382 29.8642C32.5855 29.8604 32.5341 29.8455 32.4875 29.8203C32.3883 29.7672 32.3133 29.6641 32.2578 29.5078ZM35.3594 25.3844L34.5273 25.668L35.4758 28.3938C35.5281 28.5492 35.5375 28.6773 35.4914 28.7773C35.4712 28.8265 35.4403 28.8705 35.401 28.9062C35.3617 28.9418 35.3149 28.9683 35.264 28.9836C35.2142 29.0048 35.1601 29.0142 35.106 29.0109C35.0519 29.0077 34.9993 28.9919 34.9523 28.9648C34.8492 28.9156 34.7773 28.8125 34.7179 28.6555L33.7726 25.9328L32.9461 26.2164C32.8148 26.2664 32.7086 26.2727 32.625 26.2352C32.5842 26.2169 32.5478 26.1902 32.5181 26.1568C32.4885 26.1234 32.4663 26.0841 32.4531 26.0414C32.4358 25.9988 32.4284 25.9527 32.4317 25.9068C32.4349 25.8609 32.4487 25.8163 32.4719 25.7766C32.5187 25.6953 32.6023 25.6359 32.7273 25.593L35.1383 24.7539C35.2726 24.707 35.3789 24.7047 35.4625 24.7414C35.5047 24.7583 35.5426 24.7843 35.5734 24.8177C35.6042 24.8511 35.6272 24.891 35.6406 24.9344C35.6559 24.9766 35.662 25.0216 35.6583 25.0664C35.6547 25.1111 35.6415 25.1546 35.6195 25.1938C35.5742 25.2758 35.4844 25.3383 35.3594 25.3844ZM25.4906 35.0781C25.8773 34.9438 26.2429 34.9063 26.5734 34.9688C26.9109 35.0313 27.1976 35.1805 27.4367 35.418C27.6867 35.6609 27.8742 35.9789 28.0109 36.3688C28.1109 36.6594 28.1601 36.9367 28.1664 37.2016C28.1741 37.4552 28.1261 37.7075 28.0258 37.9406C27.9288 38.1716 27.7793 38.3768 27.589 38.5398C27.3953 38.7117 27.1492 38.8453 26.85 38.9477C26.5825 39.0496 26.2969 39.0953 26.0109 39.082C25.7609 39.0697 25.5169 39.0014 25.2969 38.882C25.0734 38.7594 24.8789 38.5903 24.7265 38.3859C24.5592 38.1584 24.4267 37.9072 24.3336 37.6406C24.2396 37.3721 24.19 37.09 24.1867 36.8055C24.1836 36.5336 24.2336 36.2906 24.3304 36.0664C24.4273 35.8453 24.5765 35.6453 24.7703 35.4797C24.964 35.3156 25.2039 35.1781 25.4906 35.0781ZM27.2406 36.6352C27.139 36.3602 27.0164 36.1359 26.857 35.9648C26.7141 35.8061 26.5273 35.6933 26.3203 35.6406C26.1143 35.5961 25.9 35.6113 25.7023 35.6844C25.5555 35.7301 25.4213 35.8093 25.3101 35.9156C25.2008 36.018 25.1195 36.1398 25.064 36.2805C25.0052 36.4389 24.9797 36.6078 24.989 36.7766C24.9953 36.9664 25.0359 37.1664 25.1078 37.3758C25.1729 37.5718 25.2674 37.7567 25.3883 37.9242C25.5039 38.0773 25.6281 38.1961 25.7656 38.2734C25.9 38.3547 26.0461 38.3984 26.1898 38.4141C26.3651 38.4254 26.5407 38.3958 26.7026 38.3276C26.8645 38.2594 27.0083 38.1544 27.1226 38.0211C27.2531 37.8656 27.3281 37.6719 27.3562 37.4344C27.3812 37.1992 27.3406 36.9281 27.2406 36.6352ZM29.1328 34.3242L31.364 36.0242L30.5883 33.7969C30.5351 33.65 30.5336 33.5281 30.5664 33.4383C30.5862 33.3918 30.6155 33.3499 30.6526 33.3155C30.6896 33.281 30.7334 33.2547 30.7812 33.2383C30.8297 33.2199 30.8815 33.2123 30.9332 33.216C30.9848 33.2196 31.0351 33.2344 31.0804 33.2594C31.1679 33.3094 31.2367 33.4063 31.2867 33.5531L32.3125 36.4977C32.4219 36.8281 32.3437 37.0398 32.0758 37.1336C32.0134 37.1557 31.9481 37.1684 31.882 37.1711C31.8133 37.168 31.7578 37.1555 31.6953 37.1305C31.6328 37.1055 31.5703 37.068 31.5086 37.0273C31.4492 36.9836 31.3929 36.9406 31.3273 36.893L29.1476 35.2063L29.9054 37.4023C29.9554 37.5492 29.9586 37.6672 29.9219 37.7609C29.9017 37.8079 29.8718 37.8499 29.8341 37.8843C29.7963 37.9186 29.7517 37.9445 29.7031 37.9602C29.6551 37.9792 29.6034 37.9872 29.5519 37.9836C29.5003 37.9799 29.4503 37.9647 29.4054 37.9391C29.3172 37.8859 29.2484 37.7922 29.1976 37.6492L28.1906 34.7578C28.1549 34.6605 28.1349 34.5582 28.1312 34.4547C28.1379 34.3655 28.1717 34.2804 28.2281 34.2109C28.2838 34.138 28.3595 34.0829 28.4461 34.0523C28.5064 34.0328 28.5694 34.0233 28.6328 34.0242C28.6873 34.0303 28.7402 34.0461 28.789 34.0711C28.8383 34.0992 28.8953 34.1305 28.9539 34.1773C29.0133 34.2273 29.0726 34.2703 29.1328 34.3242ZM34.664 32.6242L32.9547 33.2164L33.2726 34.1367L34.8508 33.5883C34.9687 33.5477 35.0625 33.5445 35.1406 33.575C35.1781 33.5913 35.2115 33.6158 35.2384 33.6466C35.2653 33.6774 35.285 33.7138 35.2961 33.7531C35.3104 33.7914 35.3167 33.8323 35.3146 33.8732C35.3124 33.914 35.3019 33.954 35.2836 33.9906C35.2461 34.0625 35.1711 34.1188 35.05 34.1625L33.4719 34.7078L33.8429 35.775L35.6086 35.1602C35.7336 35.1195 35.8304 35.1133 35.9086 35.1477C35.9906 35.182 36.0492 35.2445 36.0773 35.3375C36.0939 35.3774 36.1013 35.4205 36.099 35.4636C36.0967 35.5067 36.0847 35.5488 36.064 35.5867C36.0203 35.6617 35.9429 35.7211 35.8234 35.7617L33.7617 36.4797C33.5961 36.5352 33.4625 36.5414 33.3656 36.4922C33.2687 36.4445 33.1906 36.3398 33.1312 36.1773L32.1523 33.3578C32.1178 33.2686 32.1037 33.1728 32.1109 33.0773C32.1161 32.9991 32.1507 32.9257 32.2078 32.8719C32.2794 32.8071 32.3645 32.7591 32.457 32.7313L34.4586 32.0352C34.5781 31.9914 34.6812 31.9883 34.7594 32.0227C34.7976 32.0396 34.8319 32.0644 34.8599 32.0955C34.8879 32.1266 34.909 32.1633 34.9219 32.2031C34.9365 32.2426 34.9427 32.2847 34.94 32.3267C34.9373 32.3687 34.9258 32.4096 34.9062 32.4469C34.8664 32.518 34.7883 32.5766 34.664 32.6242Z" fill="#243438"/>
<path d="M15.8054 29.2242L16.3945 29.018L20.9726 42.1164L20.3828 42.3219L15.8054 29.2242ZM41.5625 35.25L40.9765 35.4531L36.4226 22.3461L37 22.1445L41.5625 35.25Z" fill="#BE1E2D"/>
<path d="M47.9532 15.5929C45.2399 12.5445 42.5235 9.49529 39.8063 6.44373C38.986 5.52185 38.1625 4.60232 37.3461 3.68201C36.1723 4.16902 34.881 4.29907 33.6337 4.05589C32.3864 3.81271 31.2385 3.20709 30.3336 2.31482C24.2271 7.75687 18.1193 13.1975 12.0102 18.6367L1.1344 28.3265C1.88317 29.2877 2.34537 30.4407 2.46782 31.653C2.59027 32.8652 2.368 34.0874 1.82659 35.1789C4.16096 37.8047 6.49612 40.425 8.83674 43.0539C10.0828 44.4547 11.3274 45.8515 12.5719 47.2523C13.4222 46.9448 14.3277 46.8193 15.2296 46.8837C16.1315 46.9482 17.0099 47.2012 17.8078 47.6265C24.0891 42.0414 30.3547 36.4547 36.6281 30.8656C40.2813 27.6156 43.9336 24.3625 47.5813 21.1101C47.232 20.2205 47.0839 19.2646 47.1476 18.311C47.2114 17.3574 47.4854 16.4297 47.95 15.5945" fill="#BF8149"/>
<path d="M46.8188 15.5289L38.6656 6.37419C37.8484 5.45935 37.0281 4.53513 36.2047 3.6156C35.032 4.10203 33.7418 4.23176 32.4958 3.98858C31.2497 3.74539 30.103 3.14008 29.1992 2.24841L10.8758 18.5687C7.25 21.8 3.62734 25.0289 0 28.257C0.749335 29.2193 1.21134 30.3738 1.33271 31.5873C1.45408 32.8009 1.22986 34.024 0.685938 35.1156C3.02344 37.7383 5.36406 40.3617 7.69766 42.9906C8.94375 44.3844 10.1898 45.7844 11.4367 47.1851C12.2874 46.8781 13.1931 46.7531 14.0951 46.8181C14.9972 46.8831 15.8755 47.1367 16.6734 47.5625C22.9469 41.9765 29.2203 36.3867 35.4937 30.8008C39.1461 27.5476 42.7992 24.2945 46.4469 21.0422C46.0976 20.1538 45.9497 19.199 46.0139 18.2466C46.0781 17.2942 46.3527 16.3679 46.818 15.5344" fill="#F2A755"/>
<path d="M41.5234 20.825L17.2422 42.4516C16.8867 42.7664 16.4469 42.8141 16.2133 42.5516L5.01013 29.9735C4.95748 29.9113 4.91969 29.838 4.89965 29.7591C4.87962 29.6802 4.87786 29.5977 4.89451 29.518L4.86951 29.4055L4.96013 29.318C5.00701 29.2031 5.10076 29.0774 5.2281 28.9625L29.5093 7.33986C29.8679 7.02346 30.3109 6.97814 30.5398 7.23674L41.7453 19.8149C41.9758 20.075 41.8828 20.5086 41.5265 20.8266M16.6648 42.0141C16.7086 41.9924 16.7493 41.9651 16.7859 41.9328L41.0672 20.3063C41.1046 20.2747 41.1372 20.2379 41.164 20.1969L30.0984 7.77111C30.0539 7.79212 30.013 7.82008 29.9773 7.85393L5.69607 29.4789C5.65154 29.5164 5.63044 29.5445 5.61169 29.5688V29.6063L16.6664 42.0141" fill="#BE1E2D"/>
<path d="M16.3117 28.557L15.7226 28.2476L14.2101 29.5922L14.4562 30.2281C14.5531 30.4719 14.6062 30.6492 14.6156 30.7586C14.625 30.868 14.5718 30.9734 14.4593 31.0703C14.366 31.1541 14.2432 31.1976 14.1179 31.1914C13.9851 31.182 13.8789 31.1422 13.8 31.0508C13.7527 30.9981 13.7147 30.9379 13.6875 30.8726C13.6433 30.7745 13.603 30.6747 13.5664 30.5734L12.3711 27.3172C12.3382 27.2265 12.2976 27.1109 12.2445 26.9828C12.2042 26.8693 12.1738 26.7524 12.1539 26.6336C12.1386 26.5297 12.1493 26.4237 12.1851 26.325C12.2287 26.2127 12.2992 26.1129 12.3906 26.0344C12.4717 25.9564 12.571 25.8999 12.6794 25.87C12.7879 25.8402 12.9021 25.8378 13.0117 25.8633C13.1093 25.8844 13.2078 25.9219 13.3007 25.9687C13.3953 26.0133 13.5132 26.0758 13.6664 26.1562L16.7695 27.6844C17.0031 27.7992 17.1593 27.8992 17.2375 27.9836C17.2767 28.0286 17.3062 28.0813 17.3239 28.1383C17.3417 28.1954 17.3474 28.2555 17.3406 28.3148C17.3369 28.3784 17.3207 28.4407 17.2928 28.4979C17.2649 28.5552 17.2259 28.6063 17.1781 28.6484C17.1266 28.6984 17.0635 28.7349 16.9945 28.7547C16.9356 28.7716 16.8737 28.7751 16.8132 28.7648C16.7301 28.7468 16.6495 28.7184 16.5734 28.6805C16.4853 28.6411 16.3981 28.5999 16.3117 28.557ZM13.9062 28.8531L15.0172 27.8672L13.0906 26.832L13.9062 28.8531ZM15.1984 23.6484L16.1773 22.775C16.4367 22.5476 16.6765 22.3765 16.8976 22.2633C17.1226 22.1476 17.3625 22.0883 17.6304 22.0867C18.3101 22.0726 18.9492 22.4031 19.5531 23.0781C19.7507 23.2992 19.9132 23.5211 20.0351 23.739C20.1632 23.9609 20.2507 24.1789 20.3039 24.3969C20.3531 24.6148 20.3664 24.8398 20.3414 25.0734C20.3225 25.2471 20.2761 25.4167 20.2039 25.5758C20.1382 25.732 20.0445 25.8875 19.9289 26.0281C19.814 26.1687 19.6672 26.3211 19.5015 26.4711L18.5195 27.3437C18.382 27.4625 18.2632 27.5344 18.1547 27.5555C18.0539 27.5744 17.9497 27.5558 17.8617 27.5031C17.7537 27.4275 17.656 27.3383 17.5711 27.2375L15.1476 24.518C15.0039 24.3555 14.9328 24.2062 14.9453 24.0687C14.9515 23.9328 15.0359 23.7922 15.1984 23.6484ZM16.0218 23.9828L18.264 26.5031L18.8351 25.9945C18.9601 25.8851 19.05 25.7922 19.1156 25.7234C19.1812 25.6515 19.2437 25.5703 19.2906 25.4734C19.3433 25.3857 19.3773 25.2881 19.3906 25.1867C19.45 24.7531 19.25 24.2703 18.7882 23.7523C18.4609 23.3844 18.1617 23.1594 17.8898 23.0789C17.6187 22.9914 17.375 23.0008 17.1695 23.0914C16.9313 23.2094 16.7118 23.3618 16.5179 23.5437L16.0218 23.9828ZM22.6273 22.6875L19.9257 20.8531L22.2086 23.414C22.3336 23.5547 22.3992 23.689 22.3992 23.8164C22.3992 23.9414 22.3445 24.05 22.2429 24.1437C22.1977 24.187 22.1436 24.2199 22.0844 24.2403C22.0252 24.2607 21.9623 24.268 21.9 24.2617C21.7718 24.2492 21.6445 24.168 21.5195 24.0281L18.9062 21.0922C18.7625 20.9297 18.7062 20.7836 18.7406 20.6523C18.775 20.5187 18.8625 20.3906 19.0023 20.264L19.2359 20.0562C19.3734 19.9336 19.489 19.8539 19.5726 19.8226C19.6146 19.8062 19.6596 19.7987 19.7046 19.8006C19.7497 19.8025 19.7939 19.8137 19.8343 19.8336C19.9281 19.8726 20.0593 19.9476 20.2242 20.064L22.5757 21.6125L21.3062 19.1015C21.2093 18.9211 21.1507 18.782 21.1226 18.6883C21.0945 18.5945 21.1039 18.5078 21.1414 18.4265C21.1851 18.3453 21.2718 18.243 21.4125 18.118L21.6468 17.9101C21.7875 17.782 21.9273 17.7078 22.0617 17.6922C22.1961 17.6734 22.3367 17.7437 22.4812 17.9055L25.0968 20.8406C25.2218 20.9797 25.2804 21.118 25.2836 21.2445C25.2836 21.3695 25.2273 21.4812 25.1242 21.575C25.0801 21.6178 25.0269 21.6501 24.9686 21.6696C24.9103 21.689 24.8484 21.6952 24.7875 21.6875C24.657 21.675 24.532 21.5953 24.407 21.4586L22.1242 18.8961L23.6367 21.7875C23.7336 21.9765 23.7992 22.118 23.8398 22.2101C23.8779 22.3113 23.8907 22.4201 23.8773 22.5273C23.8679 22.6461 23.8023 22.7555 23.6836 22.8578C23.6086 22.9304 23.5146 22.9802 23.4125 23.0015C23.3215 23.0182 23.2277 23.0106 23.1406 22.9797C23.0511 22.9489 22.9654 22.908 22.8851 22.8578C22.8023 22.8031 22.7179 22.743 22.6273 22.6875ZM25.875 20.0875L23.2711 17.1664C23.1406 17.014 23.0718 16.8703 23.0687 16.7344C23.0698 16.6666 23.0854 16.5998 23.1143 16.5385C23.1433 16.4772 23.185 16.4228 23.2367 16.3789C23.2864 16.3321 23.3454 16.2962 23.4099 16.2736C23.4743 16.251 23.5428 16.2421 23.6109 16.2476C23.7484 16.2617 23.8828 16.3445 24.0226 16.4976L26.6234 19.4203C26.7609 19.5711 26.8296 19.718 26.8234 19.8601C26.8227 19.9281 26.8073 19.9951 26.7781 20.0564C26.749 20.1178 26.7069 20.1721 26.6547 20.2156C26.6056 20.2612 26.5475 20.2958 26.484 20.3171C26.4205 20.3383 26.3533 20.3458 26.2867 20.339C26.15 20.3265 26.0093 20.2406 25.875 20.0875ZM27.4687 13.8328L26.6484 14.564L29.05 17.2586C29.1875 17.4148 29.2562 17.5578 29.2531 17.6969C29.2523 17.7634 29.2371 17.8289 29.2085 17.8889C29.1799 17.9489 29.1386 18.002 29.0875 18.0445C29.0386 18.0916 28.9801 18.1274 28.9161 18.1495C28.852 18.1717 28.7838 18.1795 28.7164 18.1726C28.5757 18.1617 28.439 18.0773 28.2984 17.925L25.9 15.232L25.0797 15.9586C24.9515 16.0758 24.8336 16.1336 24.7211 16.132C24.6649 16.1308 24.6096 16.1174 24.559 16.0929C24.5085 16.0684 24.4638 16.0332 24.4281 15.9898C24.3406 15.893 24.3031 15.7883 24.3218 15.6765C24.3375 15.5594 24.4093 15.45 24.5273 15.3398L26.9171 13.214C27.0476 13.0969 27.1664 13.039 27.2851 13.0422C27.3976 13.0437 27.4945 13.089 27.5812 13.1844C27.6198 13.2249 27.6488 13.2737 27.6661 13.3269C27.6834 13.3802 27.6886 13.4367 27.6812 13.4922C27.6656 13.6047 27.5968 13.7187 27.4687 13.8328ZM20.7125 29.7734C21.0961 29.4305 21.5015 29.2117 21.9101 29.125C22.3171 29.0339 22.7423 29.0721 23.1265 29.2344C23.5289 29.3961 23.9 29.6711 24.2468 30.0578C24.4992 30.3445 24.6929 30.6414 24.8265 30.9437C24.9578 31.2469 25.0226 31.5515 25.0203 31.864C25.0168 32.1782 24.9423 32.4875 24.8023 32.7687C24.6366 33.0847 24.4123 33.3663 24.1414 33.5984C23.8798 33.8412 23.5722 34.029 23.2367 34.1508C22.9273 34.2601 22.6187 34.2976 22.3132 34.2656C22.0078 34.2336 21.7086 34.1281 21.4179 33.9625C21.1135 33.7826 20.8398 33.5553 20.607 33.2891C20.3661 33.0254 20.1719 32.7227 20.0328 32.3937C19.9058 32.1026 19.8422 31.7879 19.8461 31.4703C19.8523 31.1672 19.9297 30.868 20.0703 30.5812C20.2321 30.2743 20.4499 30.0003 20.7125 29.7734ZM23.4789 30.7312C23.2359 30.4594 22.9859 30.2633 22.7179 30.1414C22.477 30.0243 22.2062 29.9832 21.9414 30.0234C21.6812 30.0716 21.4401 30.1927 21.2461 30.3726C21.1012 30.4936 20.9854 30.6456 20.9071 30.8173C20.8288 30.989 20.7901 31.1761 20.7937 31.3648C20.7968 31.5547 20.8468 31.7578 20.9437 31.9758C21.0437 32.1875 21.1875 32.4031 21.3711 32.6094C21.5586 32.8187 21.7515 32.9898 21.957 33.1117C22.1632 33.2336 22.3656 33.3086 22.5617 33.3367C22.7554 33.3648 22.9453 33.343 23.1172 33.293C23.2922 33.2336 23.457 33.1367 23.6062 33.0023C23.7968 32.8336 23.9336 32.6281 24.0086 32.3883C24.0836 32.1508 24.0773 31.8859 23.9961 31.5992C23.9125 31.3148 23.7414 31.0211 23.4789 30.7281M24.564 27.1562L27.9547 28.0515L25.9929 25.8469C25.8617 25.7031 25.7992 25.5664 25.7929 25.4445C25.7937 25.3809 25.8079 25.3183 25.8347 25.2606C25.8615 25.203 25.9003 25.1517 25.9484 25.1101C25.995 25.066 26.0507 25.0327 26.1116 25.0123C26.1724 24.9919 26.237 24.985 26.3007 24.9922C26.4257 25.0078 26.5539 25.089 26.6812 25.2328L29.2757 28.1484C29.5664 28.4726 29.5789 28.7562 29.3101 28.9937C29.2497 29.0498 29.1802 29.0952 29.1047 29.1281C29.0289 29.1577 28.9485 29.1735 28.8672 29.175C28.7836 29.175 28.6953 29.1625 28.6039 29.1437C28.5117 29.1226 28.4242 29.0969 28.3273 29.075L24.9961 28.1711L26.9265 30.3476C27.0547 30.4883 27.1203 30.625 27.1172 30.7539C27.1174 30.8176 27.1035 30.8805 27.0764 30.9382C27.0494 30.9959 27.01 31.0469 26.9609 31.0875C26.9145 31.1329 26.8584 31.1671 26.7968 31.1876C26.7352 31.208 26.6698 31.2141 26.6054 31.2055C26.4773 31.1875 26.35 31.1125 26.2281 30.9719L23.6804 28.1117C23.5906 28.0172 23.5168 27.9088 23.4617 27.7906C23.4262 27.6835 23.4251 27.5679 23.4586 27.4601C23.4867 27.3489 23.5477 27.2488 23.6336 27.1726C23.6933 27.1202 23.7621 27.0791 23.8367 27.0515C23.9033 27.0318 23.9729 27.0243 24.0422 27.0297C24.1109 27.0367 24.1922 27.0461 24.2789 27.0742C24.3742 27.1 24.4679 27.1219 24.564 27.1562ZM30.1382 22.5367L28.4476 24.043L29.2554 24.9539L30.8148 23.5656C30.9297 23.4594 31.039 23.4094 31.139 23.4094C31.2453 23.4156 31.3328 23.4562 31.4078 23.5406C31.4429 23.5779 31.4699 23.6221 31.4871 23.6704C31.5043 23.7187 31.5113 23.77 31.5078 23.8211C31.5007 23.9203 31.439 24.0234 31.3203 24.1328L29.7609 25.5211L30.7 26.5758L32.4492 25.0195C32.5711 24.9094 32.6804 24.857 32.7898 24.8601C32.8444 24.86 32.8983 24.8723 32.9475 24.8961C32.9966 24.92 33.0397 24.9547 33.0734 24.9976C33.1115 25.0364 33.1407 25.0829 33.1591 25.134C33.1774 25.1851 33.1844 25.2396 33.1797 25.2937C33.1664 25.4 33.1015 25.5055 32.9828 25.6117L30.9468 27.4305C30.7812 27.5742 30.632 27.6422 30.4945 27.6367C30.357 27.6234 30.2172 27.543 30.0703 27.3805L27.5875 24.5922C27.4937 24.4828 27.4312 24.3828 27.4039 24.2836C27.3729 24.1905 27.3785 24.0891 27.4195 24C27.4716 23.8922 27.5472 23.7975 27.6406 23.7226L29.6211 21.9562C29.7429 21.8469 29.8554 21.7969 29.9617 21.7984C30.0141 21.7991 30.0658 21.811 30.1133 21.8334C30.1607 21.8558 30.2028 21.8881 30.2367 21.9281C30.3148 22.0156 30.3461 22.1125 30.3328 22.2187C30.3218 22.3211 30.2593 22.4273 30.1382 22.5367Z" fill="#243438"/>
<path d="M6.71643 27.643L7.2969 27.125L18.8633 40.0781L18.2836 40.5969L6.71643 27.643ZM27.2328 9.82502L27.8125 9.30627L39.3883 22.2531L38.8078 22.7719L27.2328 9.82502Z" fill="#BE1E2D"/>
</svg>
