<svg width="50" height="50" viewBox="0 0 50 50" fill="none" xmlns="http://www.w3.org/2000/svg">
<path d="M48.4375 34.7656C48.4375 44.1406 39.9219 48.4375 25.1562 48.4375C10.3125 48.4375 1.875 44.1406 1.875 34.7656C1.875 21.0156 48.4375 21.0156 48.4375 34.7656Z" fill="#E7A74F"/>
<path d="M48.2812 28.2812C48.2812 37.6562 39.8438 41.9531 25.0781 41.9531C10.3906 41.9531 1.875 37.6562 1.875 28.2812C1.95313 14.6094 48.2812 14.6094 48.2812 28.2812Z" fill="#BA8443"/>
<path d="M1.875 28.5156C1.875 24.6094 6.48438 19.2188 25.1562 19.2188C43.8281 19.2188 48.4375 24.6875 48.4375 28.5156C48.4375 35.625 41.875 40.7812 25.1562 40.7812C8.4375 40.7812 1.875 35.625 1.875 28.5156Z" fill="#826046"/>
<path d="M2.34375 24.4531C2.34375 20.5469 6.875 15.1562 25.1562 15.1562C43.4375 15.1562 47.9688 20.625 47.9688 24.4531C47.9688 31.5625 41.5625 36.7188 25.1562 36.7188C8.75 36.7188 2.34375 31.5625 2.34375 24.4531Z" fill="#68472C"/>
<path d="M2.50001 19.375C3.59376 17.0312 6.48438 16.875 15.8594 20.8594C25.2344 24.8437 27.0313 26.9531 25.9375 29.375C23.9063 33.6719 18.3594 36.875 9.92188 33.2812C1.48438 29.6875 0.390632 23.75 2.50001 19.375Z" fill="#EF4D3C"/>
<path d="M3.28126 16.7187C4.37501 14.375 7.26563 14.2187 16.6406 18.2031C26.0156 22.1875 27.8125 24.2969 26.7188 26.7187C24.6875 31.0156 19.1406 34.2187 10.7031 30.625C2.26563 27.0312 1.17188 21.0156 3.28126 16.7187Z" fill="#D33B23"/>
<path d="M22.8907 26.9531C22.2657 24.4531 24.4532 22.6562 34.5313 20.4687C44.6094 18.2812 47.3438 18.9062 47.9688 21.4844C49.1407 26.0937 46.7969 31.7969 37.7344 33.75C28.7501 35.7031 23.9844 31.5625 22.8907 26.9531Z" fill="#EF4D3C"/>
<path d="M21.8751 24.4531C21.2501 21.9531 23.4376 20.1562 33.5157 17.9687C43.5938 15.7812 46.3282 16.4062 46.9532 18.9844C48.1251 23.5937 45.7813 29.2969 36.7188 31.25C27.7344 33.2031 23.0469 29.0625 21.8751 24.4531Z" fill="#D33B23"/>
<path d="M7.57812 24.1406L23.2031 39.1406L38.5156 24.1406H7.57812Z" fill="#FFE62E"/>
<path d="M47.4219 20.2344C47.4219 20.2344 48.125 22.8906 47.4219 23.6719C46.7969 24.375 44.8438 23.5938 43.9844 24.2188C43.2031 24.7656 43.4375 26.875 42.5 27.3438C41.6406 27.8125 40 26.4844 39.0625 26.875C38.2031 27.1875 37.8906 29.2969 36.9531 29.6094C36.0156 29.8438 34.6094 28.2813 33.6719 28.4375C32.7344 28.5938 32.1094 30.625 31.0938 30.7813C30.1562 30.9375 28.9844 29.1406 27.9688 29.2188C27.0312 29.2969 26.0937 31.1719 25.0781 31.1719C24.0625 31.1719 23.2031 29.2188 22.1875 29.2188C21.1719 29.1406 20.0781 30.9375 19.0625 30.7813C18.0469 30.625 17.4219 28.6719 16.4844 28.4375C15.4688 28.2031 14.1406 29.8438 13.2031 29.6094C12.2656 29.2969 11.9531 27.2656 11.0938 26.875C10.1562 26.4844 8.4375 27.8125 7.65625 27.3438C6.71875 26.875 6.95312 24.7656 6.17188 24.2188C5.3125 23.5938 3.35938 24.375 2.73437 23.6719C2.03125 22.8906 2.73437 20.2344 2.73437 20.2344H47.4219Z" fill="#8CC63E"/>
<path d="M48.4375 18.2812C48.4375 23.3594 38.0469 25.8594 25.1562 25.8594C12.2656 25.8594 1.875 23.3594 1.875 18.2812C1.875 9.0625 12.2656 1.5625 25.1562 1.5625C38.0469 1.5625 48.4375 9.0625 48.4375 18.2812Z" fill="#E7A74F"/>
<path d="M12.7344 11.25L11.4844 12.4219L10.3125 11.25L11.4844 10.0781L12.7344 11.25ZM18.5156 9.375L17.3438 10.5469L16.1719 9.375L17.3438 8.20312L18.5156 9.375ZM21.875 14.6875L20.625 15.8594L19.4531 14.6875L20.625 13.5156L21.875 14.6875ZM25.9375 10.4688L25.1562 11.25L24.375 10.4688L25.1562 9.6875L25.9375 10.4688ZM40.5469 13.5156L39.7656 14.2969L38.9844 13.5156L39.7656 12.7344L40.5469 13.5156ZM45.3906 14.2969L44.6094 15.0781L43.8281 14.2969L44.6094 13.5156L45.3906 14.2969ZM36.25 8.59375L35.4688 9.375L34.6875 8.59375L35.4688 7.8125L36.25 8.59375ZM12.4219 7.57812L11.6406 8.35938L10.8594 7.57812L11.6406 6.79688L12.4219 7.57812ZM8.20312 11.25L7.42188 12.0312L6.64062 11.25L7.42188 10.4688L8.20312 11.25ZM13.125 16.4844L12.3438 17.2656L11.4844 16.4844L12.3438 15.7031L13.125 16.4844ZM22.2656 4.45312L21.4844 5.23437L20.625 4.45312L21.4844 3.67187L22.2656 4.45312ZM29.6875 3.67187L28.9062 4.45312L28.125 3.67187L28.9062 2.89062L29.6875 3.67187ZM17.3438 5.23437L16.5625 6.01562L15.7813 5.23437L16.5625 4.45312L17.3438 5.23437ZM39.7656 7.10938L38.9844 7.89063L38.2031 7.10938L38.9844 6.32813L39.7656 7.10938ZM31.25 16.9531L30.0781 18.125L28.9062 16.9531L30.0781 15.7812L31.25 16.9531ZM29.375 10.9375L28.2031 12.1094L27.0312 10.9375L28.2031 9.76562L29.375 10.9375ZM33.75 6.40625L32.5781 7.57812L31.4062 6.40625L32.5781 5.23437L33.75 6.40625ZM37.1875 11.4844L36.0156 12.6563L34.7656 11.4844L36.0156 10.3125L37.1875 11.4844ZM42.1875 9.76562L41.0156 10.9375L39.7656 9.76562L41.0156 8.59375L42.1875 9.76562ZM38.3594 16.6406L37.1875 17.8125L36.0156 16.6406L37.1875 15.4687L38.3594 16.6406ZM9.76562 14.6094L8.59375 15.7812L7.42188 14.6094L8.59375 13.4375L9.76562 14.6094Z" fill="#FFC17A"/>
</svg>
