<svg width="50" height="50" viewBox="0 0 50 50" fill="none" xmlns="http://www.w3.org/2000/svg">
<path d="M7.42188 24.6094H42.5781V44.0625H7.42188V24.6094Z" fill="#4D4D4D"/>
<path d="M1.5625 46.9531H48.4375V48.4375H1.5625V46.9531ZM7.42188 44.0625H42.5781V45.5469H7.42188V44.0625ZM13.2812 41.0938H36.7188V42.5781H13.2812V41.0938Z" fill="#ACB8BF"/>
<path d="M32.0312 28.8281H37.5V38.2031H32.0312V28.8281Z" fill="#89664C"/>
<path d="M32.8125 29.6094H36.7188V37.4219H32.8125V29.6094Z" fill="#B4D7EE"/>
<path d="M34.375 29.2188H35.1562V37.8125H34.375V29.2188ZM12.5 28.8281H17.9688V38.2031H12.5V28.8281Z" fill="#89664C"/>
<path d="M13.2812 29.6094H17.1875V37.4219H13.2812V29.6094Z" fill="#B4D7EE"/>
<path d="M14.8438 29.2188H15.625V37.8125H14.8438V29.2188Z" fill="#89664C"/>
<path d="M4.53125 45.4688H45.5469V46.9531H4.53125V45.4688ZM10.3125 42.5781H39.6094V44.0625H10.3125V42.5781Z" fill="#DAE3EA"/>
<path d="M3.75 21.7188H46.25V23.2031H3.75V21.7188Z" fill="#94989B"/>
<path d="M1.5625 23.125H48.4375V24.6094H1.5625V23.125Z" fill="#DAE3EA"/>
<path d="M25 3.75L1.5625 16.5625L3.51562 19.5313L25 5.23437L46.4844 19.5313L48.4375 16.5625L25 3.75Z" fill="#94989B"/>
<path d="M25 1.5625L1.5625 16.5625V18.8281L25 3.75L48.4375 18.8281V16.5625L25 1.5625Z" fill="#DAE3EA"/>
<path d="M25 5.23438L1.5625 20.2344V21.7187H48.4375V20.2344L25 5.23438Z" fill="#DAE3EA"/>
<path d="M25 7.42188L5.54688 20.2344H44.4531L25 7.42188Z" fill="#ACB8BF"/>
<path d="M25 13.5938C24.2188 13.5938 23.5938 13.0469 23.5938 12.3438C23.5938 11.6406 24.2188 11.0938 25 11.0938C25.7813 11.0938 26.4062 11.6406 26.4062 12.3438H27.8125C27.8125 11.1719 26.9531 10.2344 25.7031 10V9.29688H24.2969V10C23.125 10.3125 22.1875 11.25 22.1875 12.3438C22.1875 13.6719 23.4375 14.7656 25 14.7656C25.7813 14.7656 26.4062 15.3125 26.4062 16.0156C26.4062 16.7188 25.7813 17.2656 25 17.2656C24.2188 17.2656 23.5938 16.7188 23.5938 16.0156H22.1875C22.1875 17.1875 23.0469 18.125 24.2969 18.3594V19.0625H25.7031V18.3594C26.875 18.0469 27.8125 17.1094 27.8125 16.0156C27.8125 14.6875 26.5625 13.5938 25 13.5938Z" fill="white"/>
<path d="M5.07812 26.1719H9.76562V43.9062H5.07812V26.1719Z" fill="#DAE3EA"/>
<path d="M4.53125 43.9062H10.3906V45.4688H4.53125V43.9062ZM4.53125 24.6094H10.3906V26.1719H4.53125V24.6094Z" fill="#94989B"/>
<path d="M5.54688 26.875H6.09375V43.2812H5.54688V26.875ZM8.75 26.875H9.29687V43.2812H8.75V26.875ZM7.65625 26.875H8.20312V43.2812H7.65625V26.875ZM6.64063 26.875H7.1875V43.2812H6.64063V26.875Z" fill="#C8D0D6"/>
<path d="M40.2344 26.1719H44.9219V43.9062H40.2344V26.1719Z" fill="#DAE3EA"/>
<path d="M39.6875 43.9062H45.5469V45.4688H39.6875V43.9062ZM39.6875 24.6094H45.5469V26.1719H39.6875V24.6094Z" fill="#94989B"/>
<path d="M40.7031 26.875H41.25V43.2812H40.7031V26.875ZM43.9063 26.875H44.4531V43.2812H43.9063V26.875ZM42.8125 26.875H43.3594V43.2812H42.8125V26.875ZM41.7969 26.875H42.3438V43.2812H41.7969V26.875Z" fill="#C8D0D6"/>
<path d="M20.7812 33.0469V40.7031H29.1406V33.0469C29.2187 27.3438 20.7812 27.5 20.7812 33.0469Z" fill="#89664C"/>
<path d="M21.4062 33.3594V40.7031H28.5937V33.3594C28.5937 28.125 21.4062 28.2031 21.4062 33.3594Z" fill="#594640"/>
<path d="M21.5625 33.4375V40.7031H28.5156V33.4375C28.4375 28.2031 21.5625 28.2812 21.5625 33.4375Z" fill="#A37D64"/>
<path d="M20.3906 40.7031H29.6875V41.1719H20.3906V40.7031Z" fill="#94989B"/>
<path d="M25.4687 33.2031H27.8906C27.8125 31.4844 26.7187 30.5469 25.4687 30.3125V33.2031ZM24.6875 33.2031V30.3125C23.5156 30.4687 22.3438 31.4844 22.2656 33.2031H24.6875Z" fill="#594640"/>
<path d="M25.3906 33.2031H27.8125C27.7344 31.4844 26.6406 30.5469 25.3906 30.3125V33.2031ZM24.6094 33.2031V30.3125C23.4375 30.4687 22.2656 31.4844 22.1875 33.2031H24.6094Z" fill="#89664C"/>
<path d="M25.4687 33.9844H27.8906V36.3281H25.4687V33.9844ZM22.2656 33.9844H24.6875V36.3281H22.2656V33.9844Z" fill="#594640"/>
<path d="M25.3906 33.9844H27.8125V36.3281H25.3906V33.9844ZM22.1875 33.9844H24.6094V36.3281H22.1875V33.9844Z" fill="#89664C"/>
<path d="M25.4687 37.4219H27.8906V39.7656H25.4687V37.4219ZM22.2656 37.4219H24.6875V39.7656H22.2656V37.4219Z" fill="#594640"/>
<path d="M25.3906 37.3438H27.8125V39.6875H25.3906V37.3438ZM22.1875 37.3438H24.6094V39.6875H22.1875V37.3438Z" fill="#89664C"/>
<path d="M27.2656 35H28.2812V37.0313H27.2656V35Z" fill="#DAE3EA"/>
<path d="M27.3438 35.0781H28.2031V36.9531H27.3438V35.0781Z" fill="#ACB8BF"/>
<path d="M27.8906 36.7969L27.8125 36.4062L27.8906 36.3281C27.8906 36.25 27.8125 36.1719 27.7344 36.1719C27.6563 36.1719 27.5781 36.25 27.5781 36.3281C27.5781 36.4063 27.5781 36.4062 27.6563 36.4062L27.5781 36.7969H27.8906Z" fill="#3E4347"/>
<path d="M27.7344 36.0156C27.9501 36.0156 28.125 35.8407 28.125 35.625C28.125 35.4093 27.9501 35.2344 27.7344 35.2344C27.5186 35.2344 27.3438 35.4093 27.3438 35.625C27.3438 35.8407 27.5186 36.0156 27.7344 36.0156Z" fill="#94989B"/>
<path d="M27.7344 35.9375C27.9501 35.9375 28.125 35.7626 28.125 35.5469C28.125 35.3311 27.9501 35.1562 27.7344 35.1562C27.5186 35.1562 27.3438 35.3311 27.3438 35.5469C27.3438 35.7626 27.5186 35.9375 27.7344 35.9375Z" fill="#DAE3EA"/>
</svg>
