<svg width="50" height="50" viewBox="0 0 50 50" fill="none" xmlns="http://www.w3.org/2000/svg">
<path d="M4.06099 13.9102V42.7531C4.06099 42.7531 3.53131 47.8906 11.3587 44.5977L39.6868 33.3617V4.35391L19.3196 9.49454L18.9727 5.07422L4.06646 8.31719L4.06099 13.9102Z" fill="#D69661"/>
<path d="M40.4171 1.98516C33.9273 3.62188 27.4351 5.26251 20.9437 6.89766C20.8671 5.9211 20.7882 4.94063 20.7132 3.96251C20.6492 3.15704 19.9953 2.62501 19.1882 2.80079L2.68823 6.38907C2.16948 6.50313 1.80542 7.03594 1.80542 7.55157V43.0367C1.80542 45.0359 2.93745 47.0281 4.89526 47.7086C7.38589 48.5727 9.8648 47.6477 12.1875 46.7227C21.814 42.907 31.4375 39.0891 41.0625 35.2695C41.5695 35.0695 41.946 34.6898 41.946 34.1086V3.14532C41.9476 2.35235 41.1804 1.79454 40.4203 1.98594M5.16245 45.15C4.08511 44.4938 4.21323 43.0828 4.21323 42.0094V8.52266L18.4242 5.43204C18.5023 6.42969 18.582 7.42344 18.6609 8.41797C18.6781 8.66641 18.7624 8.87266 18.8835 9.04063C19.1281 9.45079 19.5851 9.73047 20.1851 9.57891C26.6367 7.95001 33.0875 6.32344 39.5382 4.69454V33.3C31.8765 36.3383 24.214 39.3773 16.5539 42.4188C13.7249 43.5406 7.92105 46.8344 5.1648 45.1547" fill="#B77846"/>
<path d="M4.24376 42.9227C4.24376 42.9227 3.56485 47.7609 11.4563 44.6758L39.4484 33.9961L49.1352 6.41797C37.6063 9.28906 24.6977 13.1883 13.932 15.6234C10.6805 25.2008 7.54298 33.5922 4.24766 42.9211" fill="#E5B687"/>
</svg>
