<svg width="50" height="50" viewBox="0 0 50 50" fill="none" xmlns="http://www.w3.org/2000/svg">
<path d="M17.9891 17.1875H25.0047L26.5625 16.375L28.1203 17.1875H37.2219C37.9406 17.1875 38.5969 17.5703 38.9344 18.1766L39.2625 18.7484L40.0609 22.6547L43.75 26.5625H43.7375C45.4703 26.5625 46.8594 27.9938 46.875 29.7422V39.0078C46.875 40.7734 45.4703 42.1875 43.7531 42.1875H6.24687C4.51406 42.1875 3.125 40.7563 3.125 39.0078V33.6359C3.125 31.0609 4.79531 28.8031 7.22969 28.0891L12.475 26.5625H12.5L15.1875 23.0531L16 18.7531L16.1797 18.3516C16.3381 18.0046 16.5928 17.7104 16.9136 17.504C17.2343 17.2977 17.6076 17.1878 17.9891 17.1875Z" fill="#F9C23C"/>
<path d="M39.2625 18.75H29.4469C28.7125 18.75 28.125 19.3906 28.125 20.1875V25.125C28.125 25.9219 28.7125 26.5625 29.4469 26.5625H43.75L39.2625 18.75ZM23.6422 26.5625C24.3969 26.5625 25 25.9219 25 25.125V20.2063C25 19.4063 24.3969 18.7688 23.6422 18.7688L15.9984 18.7562L12.5 26.5625H23.6422Z" fill="#26C9FC"/>
<path d="M46.875 32.8125H46.0703C44.7797 32.8125 43.75 33.8703 43.75 35.1562C43.75 36.4609 44.7969 37.5 46.0703 37.5H46.875V32.8125Z" fill="#F92F60"/>
<path d="M18.75 41.4062C18.75 42.8567 18.1738 44.2477 17.1482 45.2732C16.1227 46.2988 14.7317 46.875 13.2812 46.875C11.8308 46.875 10.4398 46.2988 9.41426 45.2732C8.38867 44.2477 7.8125 42.8567 7.8125 41.4062C7.8125 39.9558 8.38867 38.5648 9.41426 37.5393C10.4398 36.5137 11.8308 35.9375 13.2812 35.9375C14.7317 35.9375 16.1227 36.5137 17.1482 37.5393C18.1738 38.5648 18.75 39.9558 18.75 41.4062ZM42.1875 41.4062C42.1875 42.8567 41.6113 44.2477 40.5857 45.2732C39.5602 46.2988 38.1692 46.875 36.7188 46.875C35.2683 46.875 33.8773 46.2988 32.8518 45.2732C31.8262 44.2477 31.25 42.8567 31.25 41.4062C31.25 39.9558 31.8262 38.5648 32.8518 37.5393C33.8773 36.5137 35.2683 35.9375 36.7188 35.9375C38.1692 35.9375 39.5602 36.5137 40.5857 37.5393C41.6113 38.5648 42.1875 39.9558 42.1875 41.4062Z" fill="#212121"/>
<path d="M15.625 41.4062C15.625 42.0279 15.3781 42.624 14.9385 43.0635C14.499 43.5031 13.9029 43.75 13.2812 43.75C12.6596 43.75 12.0635 43.5031 11.624 43.0635C11.1844 42.624 10.9375 42.0279 10.9375 41.4062C10.9375 40.7846 11.1844 40.1885 11.624 39.749C12.0635 39.3094 12.6596 39.0625 13.2812 39.0625C13.9029 39.0625 14.499 39.3094 14.9385 39.749C15.3781 40.1885 15.625 40.7846 15.625 41.4062ZM39.0625 41.4062C39.0625 41.714 39.0019 42.0188 38.8841 42.3032C38.7663 42.5875 38.5937 42.8459 38.376 43.0635C38.1584 43.2812 37.9 43.4538 37.6157 43.5716C37.3313 43.6894 37.0265 43.75 36.7188 43.75C36.411 43.75 36.1062 43.6894 35.8218 43.5716C35.5375 43.4538 35.2791 43.2812 35.0615 43.0635C34.8438 42.8459 34.6712 42.5875 34.5534 42.3032C34.4356 42.0188 34.375 41.714 34.375 41.4062C34.375 40.7846 34.6219 40.1885 35.0615 39.749C35.501 39.3094 36.0971 39.0625 36.7188 39.0625C37.3404 39.0625 37.9365 39.3094 38.376 39.749C38.8156 40.1885 39.0625 40.7846 39.0625 41.4062Z" fill="#D3D3D3"/>
<path d="M21.875 29.6875H18.75V32.8125H21.875V35.9375H25V32.8125H28.125V35.9375H31.25V32.8125H34.375V29.6875H31.25V32.8125H28.125V29.6875H25V32.8125H21.875V29.6875Z" fill="#212121"/>
<path d="M26.3703 14.0625H26.7547C27.5109 14.0625 28.125 14.6766 28.125 15.4328V17.1875H25V15.4328C25 14.6766 25.6141 14.0625 26.3703 14.0625ZM3.125 32.8125H5.18438C5.76719 32.8125 6.25 33.4062 6.25 34.1188V36.1937C6.25 36.9078 5.78125 37.5 5.18438 37.5H3.125V32.8125Z" fill="#D3D3D3"/>
<path d="M15.625 25.7812C15.625 25.1596 15.8719 24.5635 16.3115 24.124C16.751 23.6844 17.3471 23.4375 17.9688 23.4375H18.6016C18.6828 23.4375 18.75 23.5047 18.75 23.5859V27.9766C18.75 28.0159 18.7344 28.0537 18.7065 28.0815C18.6787 28.1094 18.6409 28.125 18.6016 28.125H17.9688C17.3471 28.125 16.751 27.8781 16.3115 27.4385C15.8719 26.999 15.625 26.4029 15.625 25.7812Z" fill="#FCD53F"/>
</svg>
