<svg width="48" height="50" viewBox="0 0 48 50" fill="none" xmlns="http://www.w3.org/2000/svg">
<g clip-path="url(#clip0_14_755)">
<path d="M47.937 44.5508C47.9375 45.2579 47.8042 45.9582 47.5448 46.6117C47.2854 47.2652 46.9049 47.859 46.4251 48.3593C45.9453 48.8595 45.3755 49.2564 44.7484 49.5272C44.1213 49.798 43.4491 49.9374 42.7702 49.9375H5.16525C4.48652 49.9372 3.81449 49.7976 3.18756 49.5267C2.56062 49.2558 1.99106 48.8589 1.51141 48.3587C1.03175 47.8585 0.651392 47.2647 0.392062 46.6114C0.132732 45.958 -0.000491252 45.2578 1.36115e-06 44.5508V5.38359C-0.000197643 3.95625 0.543837 2.58727 1.51247 1.57769C2.4811 0.568119 3.79501 0.000621468 5.16525 0H42.7702C43.4489 -2.97908e-08 44.1209 0.139262 44.7478 0.409832C45.3748 0.680402 45.9444 1.07698 46.4242 1.57691C46.904 2.07685 47.2846 2.67034 47.5441 3.3235C47.8037 3.97666 47.9372 4.67668 47.937 5.38359V44.5508Z" fill="#8CC6EB"/>
<path fill-rule="evenodd" clip-rule="evenodd" d="M7.44899 41.2195C7.52399 39.2414 8.97299 38.9258 10.1685 38.2086C9.80474 37.2469 10.353 36.7758 10.9972 36.2461C13.5727 34.1328 16.407 33.0273 19.617 33.2648C20.5605 33.3344 21.1522 32.8609 21.5145 31.9148C21.837 31.0789 22.221 30.2734 22.5427 29.4391C22.8412 28.6711 23.3377 28.4914 23.8867 28.982C24.8497 29.85 25.689 29.4148 26.304 28.6055C27.915 26.4883 29.4427 24.3148 29.1427 21.2164C28.9717 19.4445 30.4207 17.868 32.0422 17.9695C32.3385 17.9859 32.7622 18.4359 32.8702 18.7852C33.1897 19.825 33.3532 20.9219 33.6277 21.982C34.0005 23.4172 33.7545 24.7164 32.7652 25.6641C31.656 26.7242 31.3545 28.0781 31.2675 29.568C31.212 30.5164 31.2487 31.4719 31.1797 32.4164C31.0807 33.7726 30.4597 34.7219 29.2695 35.1102C27.6795 35.6297 26.0572 36.0406 24.4912 36.6437C23.514 37.0211 22.5217 37.5242 21.7072 38.2219C20.331 39.3984 19.8592 39.318 19.3147 37.4898C19.1235 36.8453 19.05 36.0156 18.081 36.1555C18.081 36.4242 18.072 36.6875 18.084 36.95C18.1755 39.5062 16.8502 41.1726 14.58 41.0547C13.1677 40.9805 12.2947 41.5406 11.7292 42.9234C11.4615 43.5672 11.1952 44.2391 10.803 44.7852C10.5367 45.157 9.94349 45.632 9.68549 45.5195C9.29774 45.3492 9.00974 44.7391 8.81624 44.2477C8.70449 43.968 8.87549 43.5562 8.89874 43.2C9.01199 41.4297 9.45224 41.4687 7.44824 41.2203M29.8612 17.3961C29.0017 14.8086 29.4667 13.232 31.4572 12.1398C32.5417 11.5461 33.0502 10.625 33.1245 9.35156C33.171 8.60312 33.1065 7.84687 33.1537 7.09999C33.177 6.70624 33.2632 6.06327 33.4537 5.99296C33.786 5.86874 34.2802 5.99765 34.6035 6.21406C35.2057 6.61484 35.7712 7.11093 36.291 7.64531C37.9312 9.33281 39.8355 9.82656 41.9865 9.34843C42.297 9.28124 42.618 9.26562 42.9352 9.24062C43.0245 9.23437 43.1205 9.2789 43.2622 9.31093C41.2147 11.757 39.0825 13.9906 36.0967 14.7328C35.3122 14.9281 34.4467 14.7359 33.6217 14.6641C33.1035 14.6164 32.5927 14.3664 32.0842 14.3914C31.8435 14.4023 31.3875 14.9203 31.4295 15.0859C31.806 16.6297 30.6607 16.7812 29.8612 17.3961Z" fill="#5E8D3F"/>
<path fill-rule="evenodd" clip-rule="evenodd" d="M8.54321 40.4477C8.61896 38.4688 10.0687 38.1539 11.262 37.4367C10.8997 36.4758 11.4472 36.0047 12.0922 35.475C14.6677 33.3617 17.502 32.2555 20.712 32.4937C21.657 32.5625 22.2465 32.0898 22.6117 31.1437C22.9327 30.3078 23.3152 29.5023 23.6392 28.668C23.937 27.9 24.4312 27.7203 24.9825 28.2109C25.9455 29.0789 26.7847 28.6437 27.4005 27.8336C29.0115 25.7172 30.537 23.5438 30.2392 20.4453C30.0682 18.6734 31.5172 17.0969 33.1387 17.1984C33.435 17.2148 33.8587 17.6648 33.9667 18.0141C34.2855 19.0539 34.4505 20.1508 34.7242 21.2102C35.0962 22.6461 34.851 23.9445 33.8617 24.893C32.7517 25.9531 32.451 27.307 32.3625 28.7969C32.3085 29.7445 32.3452 30.7008 32.2747 31.6453C32.1772 33.0008 31.5555 33.9508 30.366 34.3383C28.776 34.8586 27.153 35.2695 25.5862 35.8727C24.612 36.2492 23.619 36.7531 22.8037 37.4508C21.4267 38.6273 20.9572 38.5477 20.4097 36.7195C20.22 36.075 20.1457 35.2453 19.1752 35.3844C19.1752 35.6531 19.1745 35.9172 19.1797 36.1797C19.2727 38.7359 17.946 40.4016 15.6757 40.2844C14.2635 40.2102 13.392 40.7703 12.8235 42.1523C12.5572 42.7969 12.2902 43.4688 11.8987 44.0148C11.631 44.3859 11.0392 44.8617 10.7812 44.7492C10.3942 44.5789 10.1055 43.9688 9.91121 43.4773C9.80096 43.1969 9.97346 42.7859 9.99521 42.4297C10.107 40.6594 10.5472 40.6977 8.54321 40.4492M30.9525 16.625C30.0937 14.0375 30.558 12.4609 32.547 11.3687C33.6337 10.775 34.1422 9.85312 34.2172 8.58047C34.2645 7.83203 34.1985 7.07578 34.245 6.32891C34.2705 5.93437 34.3545 5.29219 34.5457 5.22187C34.878 5.09766 35.3715 5.22656 35.6955 5.44297C36.2977 5.84297 36.8632 6.33984 37.383 6.87422C39.0232 8.56172 40.929 9.05547 43.0785 8.57656C43.3905 8.50937 43.71 8.49375 44.0265 8.46953C44.118 8.46328 44.2125 8.50781 44.3542 8.53984C42.306 10.9859 40.1737 13.2195 37.1887 13.9617C36.4057 14.157 35.5402 13.9648 34.7137 13.893C34.197 13.8453 33.6847 13.5953 33.1747 13.6195C32.9362 13.6305 32.4795 14.1492 32.5207 14.3148C32.898 15.8578 31.7527 16.0102 30.9525 16.625Z" fill="#466C32"/>
</g>
<defs>
<clipPath id="clip0_14_755">
<rect width="48" height="50" fill="white"/>
</clipPath>
</defs>
</svg>
