<svg width="50" height="50" viewBox="0 0 50 50" fill="none" xmlns="http://www.w3.org/2000/svg">
<path d="M25 21.473C27.804 21.473 30.158 23.373 30.823 25.942C31.659 29.163 31.546 32.693 35.221 34.526C38.483 35.636 39.717 37.031 39.717 40.771C39.717 43.756 37.163 46.929 33.87 47.325C30.188 47.878 27.322 47.155 24.999 45.831C22.676 47.155 19.809 47.879 16.132 47.325C12.837 46.929 10.284 43.745 10.284 40.771C10.284 37.111 11.601 35.562 14.857 34.501C18.864 32.454 18.326 28.866 19.22 25.784C19.5875 24.5369 20.3495 23.4427 21.3917 22.6654C22.4338 21.8881 23.6999 21.4697 25 21.473ZM43.357 19.249C42.364 18.386 38.311 21.755 37.036 23.421C36.261 24.31 35.779 25.532 35.779 26.88C35.779 29.591 37.719 31.789 40.106 31.789C41.922 31.789 43.476 30.526 44.119 28.73C45.368 25.5 45.437 21.055 43.357 19.249ZM6.64101 19.249C4.56401 21.055 4.63101 25.5 5.88201 28.73C6.52501 30.526 8.07801 31.789 9.89301 31.789C12.282 31.789 14.22 29.591 14.22 26.88C14.22 25.532 13.739 24.31 12.964 23.421C11.688 21.755 7.63601 18.386 6.64101 19.249ZM30.335 1.54198C40.423 3.25398 39.715 20.244 31.638 18.875C29.308 18.479 27.578 16.357 27.315 13.822C27.048 11.244 26.447 0.883984 30.335 1.54198ZM19.665 1.54198C23.554 0.882984 22.952 11.243 22.685 13.821C22.422 16.357 20.694 18.478 18.364 18.874C10.285 20.245 9.57801 3.25398 19.665 1.54198Z" fill="#09090A"/>
</svg>
