<svg width="50" height="50" viewBox="0 0 50 50" fill="none" xmlns="http://www.w3.org/2000/svg">
<g clip-path="url(#clip0_12_137)">
<path d="M23.4375 49.2969C23.4375 49.2969 38.8281 29.5312 50 23.4375C45 13.6719 20.1562 3.90625 20.1562 3.90625L4.45312 24.375L19.7656 49.1406C20.625 50.2344 22.2656 50.3125 23.4375 49.2969Z" fill="#94989B"/>
<path d="M20.3125 45.2344C20.3125 45.2344 50.2344 24.375 46.4844 12.3438C38.125 13.125 22.1094 1.71875 20.9375 0C16.25 6.875 6.40629 12.1094 1.95316 18.0469C0.156285 20.4688 -0.781215 22.1875 1.01566 24.9219L19.8438 49.0625C18.9063 47.9688 19.2188 46.25 20.3125 45.2344Z" fill="#D0D0D0"/>
<path d="M36.9531 25.3125L14.7656 7.96875L15.3906 7.42188L37.7344 24.6094L36.9531 25.3125ZM13.9844 24.375L6.01562 16.0156C9.84375 11.6406 12.9688 9.60938 12.9688 9.60938L22.0313 17.1875L13.9844 24.375ZM19.2969 41.0937L2.1875 20.1562C2.65625 18.2812 4.21875 17.4219 4.21875 17.4219L22.4219 38.2812L19.2969 41.0937ZM24.0625 18.9063L21.3281 21.3281L31.25 30.3906L34.375 27.5781L24.0625 18.9063ZM18.5938 23.8281L15.8594 26.25L24.9219 36.0156L28.125 33.2031L18.5938 23.8281ZM22.1094 3.4375L22.9688 3.98437L21.6406 7.65625L24.6094 5L25.4688 5.54687L21.1719 9.375L20.3125 8.75L21.6406 5L18.75 7.57812L18.0469 7.03125L22.1094 3.4375ZM28.9844 8.98438L26.4844 7.42188L25.5469 8.28125L27.8125 9.76563L27.0313 10.4688L24.8438 8.98438L23.75 10L26.25 11.7969L25.4688 12.5L22.1875 10.0781L26.4844 6.25L29.9219 8.4375L28.9844 8.98438ZM31.4063 9.21875L29.4531 12.0312L28.8281 12.8125L29.6875 12.2656L32.9688 10.2344L34.1406 11.0156L32.0313 13.9062L31.4063 14.6875L32.3438 14.1406L35.9375 12.1094L37.1875 12.8906L30.7031 16.25L29.6875 15.4688L31.875 12.5L32.5781 11.5625L31.4844 12.2656L28.125 14.2969L27.1875 13.5938L30.3906 8.51562L31.4063 9.21875ZM35.2344 17.0312C35.0781 17.2656 34.9219 17.5 34.9219 17.6563C34.9219 17.9688 35.1562 18.3594 35.625 18.6719C35.9375 18.9062 36.1719 19.0625 36.4844 19.1406C36.9531 19.2969 37.3438 19.2188 37.6563 18.9844C37.8125 18.8281 37.8906 18.6719 37.8125 18.4375C37.7344 18.2031 37.5 17.9688 37.1875 17.6563L36.6406 17.1094C36.0938 16.5625 35.8594 16.1719 35.7031 15.8594C35.5469 15.3906 35.7031 14.9219 36.1719 14.4531C36.6406 14.0625 37.1875 13.8281 37.8906 13.8281C38.5938 13.8281 39.2969 14.0625 40.1563 14.5313C40.8594 14.9219 41.25 15.4688 41.4844 16.0156C41.7188 16.5625 41.4844 17.1094 41.0156 17.6563L39.6875 16.7969C40 16.4844 40 16.1719 39.8438 15.8594C39.6875 15.625 39.5313 15.4688 39.2188 15.2344C38.9063 15 38.5156 14.9219 38.2031 14.8438C37.8906 14.8438 37.6563 14.9219 37.4219 15.0781C37.2656 15.2344 37.1875 15.3906 37.3438 15.625C37.4219 15.7812 37.5781 16.0156 37.9688 16.3281L38.8281 17.2656C39.2188 17.6563 39.4531 18.0469 39.5313 18.3594C39.6875 18.8281 39.5313 19.2969 39.0625 19.6875C38.5938 20.1562 37.9688 20.3125 37.1875 20.3125C36.4063 20.3125 35.7031 20 34.9219 19.375C34.1406 18.8281 33.6719 18.2031 33.5938 17.6563C33.4375 17.1094 33.6719 16.5625 34.2188 16.0938L35.2344 17.0312Z" fill="#94989B"/>
</g>
<defs>
<clipPath id="clip0_12_137">
<rect width="50" height="50" fill="white"/>
</clipPath>
</defs>
</svg>
