<svg width="50" height="50" viewBox="0 0 50 50" fill="none" xmlns="http://www.w3.org/2000/svg">
<path d="M30.8086 28.2266L8.46875 47.957C8.46875 47.957 15.1797 50.1602 26.0664 46.2656C37.2344 42.2695 46.7266 31.7734 47.8242 18.5547C48.7773 7.07422 46.6758 5.75 46.0234 4.90234C45.3867 4.07422 44.3125 3.96875 44.3125 3.96875L30.8086 28.2266Z" fill="#6D2A19"/>
<path d="M10.8711 12.7734C1.50387 23.0273 1.88278 35.1797 2.08981 39.7461C2.22653 42.793 2.75387 44.3398 4.23434 45.9687C5.61715 47.4883 8.50387 48.8477 14.3828 47.6016C20.5039 46.3047 29.8203 42.0234 38.2578 32.4141C47.207 22.2187 47.9414 6.13671 45.5195 4.40624C43.0976 2.67578 38.1875 1.36328 33.4179 1.64062C28.6484 1.91796 19.6562 3.16015 10.8711 12.7734Z" fill="#9C3C25"/>
<path d="M4.16803 45.9102C4.05475 45.9844 3.14459 45.3945 3.10553 44.3164C3.03521 42.4961 4.26568 37.2656 6.00787 33.2695C7.64459 29.5078 8.81646 27.8242 8.81646 27.8242C8.81646 27.8242 7.711 26.7461 7.75006 24.7383C7.78912 22.7305 8.48443 18.8945 16.129 11.5078C24.2227 3.67579 26.9532 4.4922 28.2501 4.52345C29.3165 4.55079 30.9844 5.1836 31.1094 5.21876C31.1094 5.21876 33.6758 3.54298 36.3165 2.98829C38.9571 2.4336 41.6133 2.7422 42.0469 2.78517C42.4844 2.82814 43.2344 3.07423 43.8321 3.35939C44.4024 3.62892 45.0782 4.10548 45.0782 4.10548C45.0782 4.10548 40.3907 3.52345 37.3399 4.3047C34.2891 5.08595 32.3751 6.22657 32.3751 6.22657C32.3751 6.22657 33.2344 7.7422 33.1563 8.79298C33.043 10.2813 32.0782 11.5078 29.3243 14.3359C26.9219 16.8047 18.3008 26.5234 17.2344 27.6133C15.8594 29.0274 14.1485 29.6953 12.6212 29.5469C11.0977 29.3984 10.168 28.8047 10.168 28.8047C10.168 28.8047 8.49225 31.668 7.26568 34.6836C6.03912 37.6992 5.21881 40.7852 4.51178 44.2813C4.336 45.1641 4.37897 45.7695 4.16803 45.9102Z" fill="#6D291A"/>
<path d="M10.4024 27.3984C11.3985 27.9883 14.0664 28.2969 15.582 27.0742C17.0977 25.8555 19.0977 23.0156 23.6328 17.9883C27.0703 14.1836 31.0195 10.9531 31.207 9.10548C31.4531 6.66017 29.25 5.78126 26.8828 5.96485C24.5195 6.14845 20.0469 9.40235 16.3516 13.2461C12.6563 17.0899 9.77345 20.7461 9.18361 23.332C8.82033 24.9219 9.19533 26.6797 10.4024 27.3984Z" fill="#9C3C25"/>
<path d="M26.5586 2.73046C26.5586 2.73046 29.5469 3.26953 32.6133 5.30078C35.6797 7.33203 39.0234 9.98046 41.0703 12.2266C42.2305 13.5 45.4649 17.6445 45.6524 17.6445C45.8399 17.6445 46.2109 15.168 46.3242 14.2461C46.4336 13.3242 46.6211 12.4336 46.5078 12.1016C46.3984 11.7695 44.2383 8.88281 40.7422 5.78125C36.7695 2.25781 33.082 1.63281 33.082 1.63281C33.082 1.63281 32.125 1.59765 29.7149 1.91015C27.9688 2.14062 26.5586 2.73046 26.5586 2.73046ZM3.21486 26.957C3.21486 26.957 5.19532 27.4336 8.59376 29.7969C12.4219 32.4609 14.8008 34.5625 17.6836 37.5195C20.4219 40.3281 23.3633 44.0625 23.3633 44.2852C23.3633 44.5078 22.1992 44.9727 20.4922 45.7227C19.6563 46.0898 18.0664 46.7773 17.8047 46.6641C17.5469 46.5547 15.4492 43.3711 12.1758 40.2148C10.1055 38.2187 7.85157 36.0781 4.96876 34.3008C3.12501 33.168 2.18751 32.9492 2.18751 32.9492C2.18751 32.9492 2.1797 31.6055 2.56642 29.5703C2.91407 27.7695 3.21486 26.957 3.21486 26.957Z" fill="#F2F0EE"/>
<path d="M20.7578 13.0313C15.8438 17.6875 10.2695 25.0625 9.96095 25.5117C9.42579 26.2852 9.41407 26.8984 10.1055 27.3281C10.7969 27.7578 11.2969 27.0703 11.7344 26.5078C12.2188 25.8867 16.6172 19.5234 21.2109 15.1016C26.5234 9.99609 30.1719 7.58984 30.6172 7.14844C30.9453 6.82031 31.8008 6.44531 31.0977 5.78125C30.5625 5.27344 29.5078 5.92969 29.0664 6.26172C28.6211 6.59375 25.957 8.10547 20.7578 13.0313Z" fill="#FDFFFF"/>
<path d="M25.8516 5.31641C25.1524 5.85938 25.2188 6.85157 26.0547 7.50782C26.6914 8.00782 28.0508 9.08204 28.6993 9.67579C29.4883 10.3984 30.2422 10.5352 30.8243 10.082C31.4336 9.60938 31.75 8.4336 30.668 7.34766C29.5938 6.27344 28.9727 5.62891 27.8438 5.17969C27.1094 4.88672 26.3516 4.9336 25.8516 5.31641ZM24.9532 7.99219C24.3086 7.74219 23.2227 7.25391 22.3711 8.02735C21.5196 8.80079 21.9688 9.79688 22.7344 10.3516C23.5 10.9063 24.6016 12 25.6953 12.7773C26.3203 13.2188 27.3985 13.582 28.1641 12.7383C28.7969 12.0391 28.2578 10.8828 27.7813 10.3008C27.2266 9.61719 26.086 8.42969 24.9532 7.99219ZM21.9649 11.1914C21.1289 10.7188 19.7266 10.2656 18.7774 11.2383C17.7383 12.3047 18.3243 13.0898 19.3438 13.7227C20.1993 14.2539 21.9414 15.7539 22.5078 16.1406C23.4336 16.7734 24.6133 16.4961 25.0625 15.8008C25.8086 14.6484 24.7891 13.3086 24.0235 12.6836C23.2774 12.0742 22.3047 11.3867 21.9649 11.1914ZM15.5039 14.4453C14.875 15.1758 14.7813 15.9609 15.7539 17.0234C16.7266 18.0859 18.4297 19.332 19.4141 19.668C20.543 20.0508 21.086 19.6211 21.4922 18.9883C21.8985 18.3555 21.5782 16.9297 20.5391 16.0039C19.8828 15.418 18.711 14.3789 17.2657 14.0625C16.4805 13.8906 15.9102 13.9727 15.5039 14.4453ZM13.9453 17.5898C13.4024 17.4375 12.7032 17.6563 12.2969 18.1563C11.8907 18.6523 11.6953 19.6367 12.1836 20.1914C12.6797 20.7578 12.9805 20.9648 13.8125 21.6836C14.6485 22.4063 15.4844 23.2891 16.4805 23.4023C17.1797 23.4805 17.8125 23.1328 18.1094 22.6797C18.4024 22.2266 18.3711 21.2188 17.5664 20.3516C16.9961 19.7344 15.5469 18.0391 13.9453 17.5898ZM9.41019 21.8359C8.58597 22.9102 9.0391 24.3672 11.0743 25.6523C12.7422 26.7109 14.211 27.4531 15.211 26.2383C16.1485 25.0977 15.2344 23.9336 13.1328 22.4883C11.1641 21.1367 10.1563 20.8672 9.41019 21.8359Z" fill="#FDFFFF"/>
</svg>
