<svg width="50" height="50" viewBox="0 0 50 50" fill="none" xmlns="http://www.w3.org/2000/svg">
<path d="M18.2021 8.93542L45.8521 18.2104L36.5771 45.8604L8.92712 36.5854L18.2021 8.93542Z" fill="#64B5F6"/>
<path d="M20.0396 13.025L41.8334 20.1292L35.375 39.9417L13.5813 32.8375L20.0396 13.025Z" fill="#1E88E5"/>
<path d="M11.3343 6.01874L40.0052 11.2979L34.726 39.9687L6.05518 34.6896L11.3343 6.01874Z" fill="#90CAF9"/>
<path d="M13.7697 9.83749L36.3427 13.8479L32.6968 34.3687L10.1239 30.3583L13.7697 9.83749Z" fill="#42A5F5"/>
<path d="M4.16663 4.16666H33.3333V33.3333H4.16663V4.16666Z" fill="#BBDEFB"/>
<path d="M7.29163 7.29166H30.2083V28.125H7.29163V7.29166Z" fill="#4CAF50"/>
<path d="M16.6666 13.5417C16.6666 12.3958 17.6041 11.4583 18.75 11.4583C19.8958 11.4583 20.8333 12.3958 20.8333 13.5417C20.8333 14.6875 18.75 17.7083 18.75 17.7083C18.75 17.7083 16.6666 14.6875 16.6666 13.5417ZM20.8333 21.875C20.8333 23.0208 19.8958 23.9583 18.75 23.9583C17.6041 23.9583 16.6666 23.0208 16.6666 21.875C16.6666 20.7292 18.75 17.7083 18.75 17.7083C18.75 17.7083 20.8333 20.7292 20.8333 21.875Z" fill="white"/>
<path d="M14.0625 17.3958C13.0209 16.7708 12.7084 15.5208 13.3334 14.5833C13.9584 13.5417 15.2084 13.2292 16.1459 13.8542C17.1875 14.4792 18.75 17.7083 18.75 17.7083C18.75 17.7083 15.1042 18.0208 14.0625 17.3958ZM23.4375 18.0208C24.4792 18.6458 24.7917 19.8958 24.1667 20.8333C23.5417 21.875 22.2917 22.1875 21.3542 21.5625C20.3125 21.0417 18.75 17.7083 18.75 17.7083C18.75 17.7083 22.3959 17.3958 23.4375 18.0208Z" fill="white"/>
<path d="M23.4375 17.3958C24.4792 16.7708 24.7917 15.5208 24.1667 14.5833C23.5417 13.5417 22.2917 13.2292 21.3542 13.8542C20.3125 14.375 18.75 17.7083 18.75 17.7083C18.75 17.7083 22.3959 18.0208 23.4375 17.3958ZM14.0625 18.0208C13.0209 18.6458 12.7084 19.8958 13.3334 20.8333C13.9584 21.875 15.2084 22.1875 16.1459 21.5625C17.1875 20.9375 18.75 17.7083 18.75 17.7083C18.75 17.7083 15.1042 17.3958 14.0625 18.0208Z" fill="white"/>
<path d="M18.75 19.7917C19.9006 19.7917 20.8333 18.8589 20.8333 17.7083C20.8333 16.5577 19.9006 15.625 18.75 15.625C17.5994 15.625 16.6666 16.5577 16.6666 17.7083C16.6666 18.8589 17.5994 19.7917 18.75 19.7917Z" fill="#FFC107"/>
</svg>
