<svg width="51" height="50" viewBox="0 0 51 50" fill="none" xmlns="http://www.w3.org/2000/svg">
<g clip-path="url(#clip0_14_691)">
<path d="M26.2969 9.21875C26.2969 9.60938 25.8984 10 25.5 10C25.1016 10 24.7031 9.60938 24.7031 9.21875V0.78125C24.7031 0.3125 25.1016 0 25.5 0C25.8984 0 26.2969 0.3125 26.2969 0.78125V9.21875Z" fill="#B2C1C0"/>
<path d="M3.1875 21.875H47.8125V46.875H3.1875V21.875Z" fill="#E5DEC1"/>
<path d="M48.211 15.4687C47.8125 14.6875 46.7766 14.0625 45.8204 14.0625H5.10005C4.22349 14.0625 3.10786 14.6875 2.70942 15.4687L0.0797372 20.4688C-0.3187 21.25 0.0797372 21.875 0.9563 21.875H49.8844C50.761 21.875 51.1594 21.25 50.761 20.4688L48.211 15.4687Z" fill="#D33B23"/>
<path d="M11.9531 35.1562C11.9531 35.5469 11.6344 35.9375 11.1562 35.9375H6.375C5.89687 35.9375 5.57812 35.5469 5.57812 35.1562V32.0312C5.57812 31.6406 5.89687 31.25 6.375 31.25H11.1562C11.6344 31.25 11.9531 31.6406 11.9531 32.0312V35.1562ZM11.9531 27.3438C11.9531 27.7344 11.6344 28.125 11.1562 28.125H6.375C5.89687 28.125 5.57812 27.7344 5.57812 27.3438V24.2188C5.57812 23.8281 5.89687 23.4375 6.375 23.4375H11.1562C11.6344 23.4375 11.9531 23.8281 11.9531 24.2188V27.3438Z" fill="#D6EEF0"/>
<path d="M11.1562 28.5156H6.375C5.7375 28.5156 5.17969 27.9688 5.17969 27.3438V24.2188C5.17969 23.5938 5.7375 23.0469 6.375 23.0469H11.1562C11.7937 23.0469 12.3516 23.5938 12.3516 24.2188V27.3438C12.3516 27.9688 11.7937 28.5156 11.1562 28.5156ZM6.375 23.8281C6.13594 23.8281 5.97656 23.9844 5.97656 24.2188V27.3438C5.97656 27.5781 6.13594 27.7344 6.375 27.7344H11.1562C11.3953 27.7344 11.5547 27.5781 11.5547 27.3438V24.2188C11.5547 23.9844 11.3953 23.8281 11.1562 23.8281H6.375Z" fill="#DBB471"/>
<path d="M8.36719 23.4375H9.16406V28.125H8.36719V23.4375ZM11.1562 36.7188H6.375C5.7375 36.7188 5.17969 36.1719 5.17969 35.5469V32.4219C5.17969 31.7969 5.7375 31.25 6.375 31.25H11.1562C11.7937 31.25 12.3516 31.7969 12.3516 32.4219V35.5469C12.3516 36.1719 11.7937 36.7188 11.1562 36.7188ZM6.375 32.0312C6.13594 32.0312 5.97656 32.1875 5.97656 32.4219V35.5469C5.97656 35.7812 6.13594 35.9375 6.375 35.9375H11.1562C11.3953 35.9375 11.5547 35.7812 11.5547 35.5469V32.4219C11.5547 32.1875 11.3953 32.0312 11.1562 32.0312H6.375Z" fill="#DBB471"/>
<path d="M8.36719 31.6406H9.16406V36.3281H8.36719V31.6406Z" fill="#DBB471"/>
<path d="M11.9531 42.9688C11.9531 43.3594 11.6344 43.75 11.1562 43.75H6.375C5.89687 43.75 5.57812 43.3594 5.57812 42.9688V39.8438C5.57812 39.4531 5.89687 39.0625 6.375 39.0625H11.1562C11.6344 39.0625 11.9531 39.4531 11.9531 39.8438V42.9688Z" fill="#D6EEF0"/>
<path d="M11.1562 44.5312H6.375C5.7375 44.5312 5.17969 43.9844 5.17969 43.3594V40.2344C5.17969 39.6094 5.7375 39.0625 6.375 39.0625H11.1562C11.7937 39.0625 12.3516 39.6094 12.3516 40.2344V43.3594C12.3516 43.9844 11.7937 44.5312 11.1562 44.5312ZM6.375 39.8438C6.13594 39.8438 5.97656 40 5.97656 40.2344V43.3594C5.97656 43.5938 6.13594 43.75 6.375 43.75H11.1562C11.3953 43.75 11.5547 43.5938 11.5547 43.3594V40.2344C11.5547 40 11.3953 39.8438 11.1562 39.8438H6.375Z" fill="#DBB471"/>
<path d="M8.36719 39.4531H9.16406V44.1406H8.36719V39.4531Z" fill="#DBB471"/>
<path d="M45.4219 35.1562C45.4219 35.5469 45.0234 35.9375 44.625 35.9375H39.8438C39.4453 35.9375 39.0469 35.5469 39.0469 35.1562V32.0312C39.0469 31.6406 39.4453 31.25 39.8438 31.25H44.625C45.0234 31.25 45.4219 31.6406 45.4219 32.0312V35.1562ZM45.4219 27.3438C45.4219 27.7344 45.0234 28.125 44.625 28.125H39.8438C39.4453 28.125 39.0469 27.7344 39.0469 27.3438V24.2188C39.0469 23.8281 39.4453 23.4375 39.8438 23.4375H44.625C45.0234 23.4375 45.4219 23.8281 45.4219 24.2188V27.3438Z" fill="#D6EEF0"/>
<path d="M44.625 28.5156H39.8438C39.2063 28.5156 38.6484 27.9688 38.6484 27.3438V24.2188C38.6484 23.5938 39.2063 23.0469 39.8438 23.0469H44.625C45.2625 23.0469 45.8203 23.5938 45.8203 24.2188V27.3438C45.8203 27.9688 45.2625 28.5156 44.625 28.5156ZM39.8438 23.8281C39.6047 23.8281 39.4453 23.9844 39.4453 24.2188V27.3438C39.4453 27.5781 39.6047 27.7344 39.8438 27.7344H44.625C44.8641 27.7344 45.0234 27.5781 45.0234 27.3438V24.2188C45.0234 23.9844 44.8641 23.8281 44.625 23.8281H39.8438Z" fill="#DBB471"/>
<path d="M41.8359 23.4375H42.6328V28.125H41.8359V23.4375ZM44.625 36.7188H39.8438C39.2063 36.7188 38.6484 36.1719 38.6484 35.5469V32.4219C38.6484 31.7969 39.2063 31.25 39.8438 31.25H44.625C45.2625 31.25 45.8203 31.7969 45.8203 32.4219V35.5469C45.8203 36.1719 45.2625 36.7188 44.625 36.7188ZM39.8438 32.0312C39.6047 32.0312 39.4453 32.1875 39.4453 32.4219V35.5469C39.4453 35.7812 39.6047 35.9375 39.8438 35.9375H44.625C44.8641 35.9375 45.0234 35.7812 45.0234 35.5469V32.4219C45.0234 32.1875 44.8641 32.0312 44.625 32.0312H39.8438Z" fill="#DBB471"/>
<path d="M41.8359 31.6406H42.6328V36.3281H41.8359V31.6406Z" fill="#DBB471"/>
<path d="M45.4219 42.9688C45.4219 43.3594 45.0234 43.75 44.625 43.75H39.8438C39.4453 43.75 39.0469 43.3594 39.0469 42.9688V39.8438C39.0469 39.4531 39.4453 39.0625 39.8438 39.0625H44.625C45.0234 39.0625 45.4219 39.4531 45.4219 39.8438V42.9688Z" fill="#D6EEF0"/>
<path d="M44.625 44.5312H39.8438C39.2063 44.5312 38.6484 43.9844 38.6484 43.3594V40.2344C38.6484 39.6094 39.2063 39.0625 39.8438 39.0625H44.625C45.2625 39.0625 45.8203 39.6094 45.8203 40.2344V43.3594C45.8203 43.9844 45.2625 44.5312 44.625 44.5312ZM39.8438 39.8438C39.6047 39.8438 39.4453 40 39.4453 40.2344V43.3594C39.4453 43.5938 39.6047 43.75 39.8438 43.75H44.625C44.8641 43.75 45.0234 43.5938 45.0234 43.3594V40.2344C45.0234 40 44.8641 39.8438 44.625 39.8438H39.8438Z" fill="#DBB471"/>
<path d="M41.8359 39.4531H42.6328V44.1406H41.8359V39.4531Z" fill="#DBB471"/>
<path d="M26.1376 9.0625C25.8188 8.82812 25.261 8.82812 24.8626 9.0625L9.40318 21.4062C9.08443 21.6406 9.08443 21.875 9.56255 21.875H41.4376C41.836 21.875 41.9954 21.6406 41.5969 21.4062L26.1376 9.0625Z" fill="#F15744"/>
<path d="M38.4094 21.4062L26.1376 11.4063C25.8188 11.0938 25.261 11.0938 24.9422 11.4063L12.5907 21.4062C12.1922 21.6406 12.2719 21.875 12.7501 21.875H14.3438V46.875H36.6563V21.875H38.2501C38.6485 21.875 38.8079 21.6406 38.4094 21.4062Z" fill="#F9F3D9"/>
<path d="M19.125 35.1562H31.875V46.875H19.125V35.1562Z" fill="#E5DEC1"/>
<path d="M20.7188 35.1562H30.2812V46.875H20.7188V35.1562Z" fill="#42ADE2"/>
<path d="M16.0969 29.6875C16.336 29.7656 16.6547 29.8438 16.9735 29.8438C17.3719 29.8438 17.5313 29.6875 17.5313 29.5312C17.5313 29.375 17.3719 29.2187 16.9735 29.1406C16.4156 28.9844 16.0172 28.6719 16.0172 28.2813C16.0172 27.7344 16.4953 27.3438 17.3719 27.3438C17.7703 27.3438 18.0891 27.4219 18.2485 27.5L18.0891 28.0469C17.9297 27.9688 17.6906 27.8906 17.3719 27.8906C17.0531 27.8906 16.8938 28.0469 16.8938 28.2031C16.8938 28.3594 17.0531 28.5156 17.5313 28.5937C18.1688 28.8281 18.4078 29.0625 18.4078 29.5312C18.4078 30 17.9297 30.4688 16.9735 30.4688C16.575 30.4688 16.1766 30.3906 16.0172 30.3125L16.0969 29.6875ZM21.436 30.3125C21.2766 30.3906 20.9578 30.4688 20.5594 30.4688C19.3641 30.4688 18.7266 29.8437 18.7266 28.9844C18.7266 27.9687 19.6031 27.3438 20.6391 27.3438C21.0375 27.3438 21.3563 27.4219 21.5156 27.5L21.3563 28.0469C21.1969 27.9688 20.9578 27.9687 20.7188 27.9687C20.0813 27.9687 19.6031 28.2812 19.6031 28.9844C19.6031 29.6094 20.0016 30 20.7188 30C20.9578 30 21.1969 29.9219 21.3563 29.9219L21.436 30.3125ZM22.711 27.4219V28.5937H23.986V27.4219H24.7828V30.4688H23.986V29.2188H22.711V30.4688H21.9141V27.4219H22.711ZM28.6875 28.9062C28.6875 29.9219 27.9703 30.4688 27.0141 30.4688C25.9782 30.4688 25.3406 29.7656 25.3406 28.9062C25.3406 27.9687 25.9782 27.3438 27.0141 27.3438C28.05 27.3438 28.6875 28.0469 28.6875 28.9062ZM26.1375 28.9062C26.1375 29.5312 26.4563 29.9219 27.0141 29.9219C27.5719 29.9219 27.811 29.4531 27.811 28.9062C27.811 28.3594 27.4922 27.8906 26.9344 27.8906C26.4563 27.8906 26.1375 28.3594 26.1375 28.9062ZM32.3531 28.9062C32.3531 29.9219 31.636 30.4688 30.6797 30.4688C29.6438 30.4688 29.0063 29.7656 29.0063 28.9062C29.0063 27.9687 29.6438 27.3438 30.6797 27.3438C31.7953 27.3438 32.3531 28.0469 32.3531 28.9062ZM29.8828 28.9062C29.8828 29.5312 30.2016 29.9219 30.7594 29.9219C31.3172 29.9219 31.5563 29.4531 31.5563 28.9062C31.5563 28.3594 31.2375 27.8906 30.6797 27.8906C30.2016 27.8906 29.8828 28.3594 29.8828 28.9062ZM32.911 27.4219H33.7078V29.8438H35.0625V30.3906H32.911V27.4219Z" fill="#89664C"/>
<path d="M25.5 25.7812C28.5807 25.7812 31.0781 23.3328 31.0781 20.3125C31.0781 17.2922 28.5807 14.8438 25.5 14.8438C22.4193 14.8438 19.9219 17.2922 19.9219 20.3125C19.9219 23.3328 22.4193 25.7812 25.5 25.7812Z" fill="#DBB471"/>
<path d="M25.5 24.2188C27.7005 24.2188 29.4844 22.4699 29.4844 20.3125C29.4844 18.1551 27.7005 16.4062 25.5 16.4062C23.2995 16.4062 21.5156 18.1551 21.5156 20.3125C21.5156 22.4699 23.2995 24.2188 25.5 24.2188Z" fill="white"/>
<path d="M25.1016 35.1562H25.8984V46.875H25.1016V35.1562Z" fill="#E5DEC1"/>
<path d="M25.5 17.1875C25.1016 17.1875 24.7031 17.5781 24.7031 17.9688V21.0938C24.7031 21.4844 25.1016 21.875 25.5 21.875C25.8984 21.875 26.2969 21.4844 26.2969 21.0938V17.9688C26.2969 17.5781 25.8984 17.1875 25.5 17.1875Z" fill="#B2C1C0"/>
<path d="M25.5 20.3125H23.9062C23.5078 20.3125 23.1094 20.7031 23.1094 21.0938C23.1094 21.4844 23.5078 21.875 23.9062 21.875H25.5C25.8984 21.875 26.2969 21.4844 26.2969 21.0938C26.2969 20.7031 25.8984 20.3125 25.5 20.3125Z" fill="#F15744"/>
<path d="M26.2969 1.5625V7.34375C29.4844 9.84375 32.6719 1.95312 35.8594 4.45312C32.6719 0 29.4844 5.9375 26.2969 1.5625Z" fill="#B4D7EE"/>
<path d="M26.2172 31.4844C25.8188 31.1719 25.1016 31.1719 24.7031 31.4844C23.0297 32.6562 17.5312 35.9375 17.5312 35.9375V37.5H33.4688V35.9375C33.4688 35.9375 27.9703 32.6562 26.2172 31.4844Z" fill="#F15744"/>
<path d="M50.2031 46.875H0.796875C0.31875 46.875 0 47.2656 0 47.6562V49.2188C0 49.6094 0.31875 50 0.796875 50H50.2031C50.6016 50 51 49.6094 51 49.2188V47.6562C51 47.2656 50.6016 46.875 50.2031 46.875Z" fill="#666666"/>
<path d="M15.9375 48.4375H35.0625V50H15.9375V48.4375Z" fill="#E8E8E8"/>
<path d="M17.5312 46.875H33.4688V48.4375H17.5312V46.875Z" fill="#D0D0D0"/>
<path d="M23.1891 41.7969H24.3047V42.3438H23.1891V41.7969ZM26.6953 41.7969H27.811V42.3438H26.6953V41.7969Z" fill="#666666"/>
</g>
<defs>
<clipPath id="clip0_14_691">
<rect width="51" height="50" fill="white"/>
</clipPath>
</defs>
</svg>
