<svg width="50" height="50" viewBox="0 0 50 50" fill="none" xmlns="http://www.w3.org/2000/svg">
<path d="M30.3906 33.3229L33.3365 30.3781L45.8562 42.8979L42.9104 45.8427L30.3906 33.3229Z" fill="#616161"/>
<path d="M20.8333 37.5C30.038 37.5 37.5 30.0381 37.5 20.8333C37.5 11.6286 30.038 4.16666 20.8333 4.16666C11.6285 4.16666 4.16663 11.6286 4.16663 20.8333C4.16663 30.0381 11.6285 37.5 20.8333 37.5Z" fill="#616161"/>
<path d="M33.8021 36.8125L36.7469 33.8667L45.8052 42.925L42.8594 45.8708L33.8021 36.8125Z" fill="#37474F"/>
<path d="M20.8333 34.375C28.3122 34.375 34.375 28.3122 34.375 20.8333C34.375 13.3545 28.3122 7.29166 20.8333 7.29166C13.3544 7.29166 7.29163 13.3545 7.29163 20.8333C7.29163 28.3122 13.3544 34.375 20.8333 34.375Z" fill="#64B5F6"/>
<path d="M28.0209 14.7917C26.25 12.7083 23.6459 11.4583 20.8334 11.4583C18.0209 11.4583 15.4167 12.7083 13.6459 14.7917C13.2292 15.2083 13.3334 15.9375 13.75 16.25C14.1667 16.6667 14.8959 16.5625 15.2084 16.1458C16.6667 14.4792 18.6459 13.5417 20.8334 13.5417C23.0209 13.5417 25 14.4792 26.4584 16.1458C26.6667 16.3542 26.9792 16.5625 27.2917 16.5625C27.5 16.5625 27.8125 16.4583 27.9167 16.3542C28.3334 15.9375 28.3334 15.2083 28.0209 14.7917Z" fill="#BBDEFB"/>
</svg>
