<svg width="49" height="50" viewBox="0 0 49 50" fill="none" xmlns="http://www.w3.org/2000/svg">
<g clip-path="url(#clip0_14_689)">
<path d="M45.7354 10.0375H25.4678L22.3094 0H3.26469C1.47007 0 0.00415039 1.49792 0.00415039 3.33125V37.2375C0.00415039 39.0667 1.47415 40.5646 3.26469 40.5646H23.6814L26.6887 50H45.7334C47.526 50 48.9939 48.5271 48.9939 46.725V13.3125C48.9939 11.5104 47.5239 10.0375 45.7334 10.0375H45.7354ZM13.7629 28.1208C9.53669 28.1208 6.10669 24.6208 6.10669 20.3083C6.10669 15.9958 9.53669 12.4958 13.7629 12.4958C15.8291 12.4958 17.5604 13.2771 18.8916 14.5292L16.8704 16.5125C16.0261 15.7148 14.9134 15.2791 13.7629 15.2958C11.0986 15.2958 8.93848 17.5458 8.93848 20.3146C8.93848 23.0833 11.0986 25.3333 13.7609 25.3333C16.8377 25.3333 18.1097 23.0833 18.2322 21.5667L13.765 21.5625V18.8875H20.9312C21.0333 19.3667 21.115 19.8396 21.115 20.4792C21.115 24.9521 18.1872 28.1229 13.7609 28.1229L13.7629 28.1208ZM47.9751 46.725C47.9751 47.9542 46.9706 48.9583 45.7354 48.9583H27.6157L35.0657 40.5625H35.0759L33.5651 35.7667L33.5773 35.7562C33.5773 35.7562 34.737 34.7396 36.1845 33.1729C37.6382 34.7792 39.5124 36.7125 41.9379 39.0167L43.5121 37.4083C40.9151 35.0042 39.0122 33.0958 37.6117 31.5646C39.4879 29.3 41.3928 26.45 41.795 23.8417H45.9478V23.8458H45.9519V21.8875H36.699V18.7208H33.6957V21.8875H29.1959L25.7822 11.0333L25.7945 11.0792H45.7354C46.9706 11.0792 47.9751 12.0792 47.9751 13.3125V46.725ZM34.737 31.4937C33.6427 32.6354 32.8117 33.3125 32.8117 33.3125L32.7954 33.3208L29.8145 23.8458H39.541C38.9142 26.1042 37.5239 28.2375 36.1702 29.8958C33.7692 26.9958 33.7611 26.0542 33.7611 26.0542H31.2662C31.2662 26.0542 31.3682 27.4667 34.737 31.4917V31.4937Z" fill="#09090A"/>
</g>
<defs>
<clipPath id="clip0_14_689">
<rect width="49" height="50" fill="white"/>
</clipPath>
</defs>
</svg>
