<svg width="52" height="50" viewBox="0 0 52 50" fill="none" xmlns="http://www.w3.org/2000/svg">
<path d="M8.66671 16.6667H4.33337V41.6667C4.33337 42.7717 4.78992 43.8315 5.60258 44.6129C6.41524 45.3944 7.51744 45.8333 8.66671 45.8333H34.6667V41.6667H8.66671V16.6667Z" fill="#09090A"/>
<path d="M43.3333 4.16667H17.3333C16.1841 4.16667 15.0819 4.60566 14.2692 5.38706C13.4565 6.16846 13 7.22827 13 8.33334V33.3333C13 34.4384 13.4565 35.4982 14.2692 36.2796C15.0819 37.061 16.1841 37.5 17.3333 37.5H43.3333C44.4826 37.5 45.5848 37.061 46.3975 36.2796C47.2101 35.4982 47.6667 34.4384 47.6667 33.3333V8.33334C47.6667 7.22827 47.2101 6.16846 46.3975 5.38706C45.5848 4.60566 44.4826 4.16667 43.3333 4.16667ZM23.8333 29.1667V12.5L39 20.8333L23.8333 29.1667Z" fill="#09090A"/>
</svg>
